<svg width="29" height="29" viewBox="0 0 29 29" fill="none" xmlns="http://www.w3.org/2000/svg">
<path d="M14.5 0C11.6322 0 8.82875 0.85041 6.44424 2.44369C4.05972 4.03697 2.20122 6.30156 1.10375 8.95109C0.00628262 11.6006 -0.280866 14.5161 0.27862 17.3288C0.838105 20.1415 2.2191 22.7252 4.24696 24.753C6.27482 26.7809 8.85847 28.1619 11.6712 28.7214C14.4839 29.2809 17.3994 28.9937 20.0489 27.8962C22.6984 26.7988 24.963 24.9403 26.5563 22.5558C28.1496 20.1713 29 17.3678 29 14.5C29 12.5958 28.6249 10.7103 27.8963 8.95109C27.1676 7.19187 26.0995 5.5934 24.753 4.24695C23.4066 2.9005 21.8081 1.83244 20.0489 1.10375C18.2897 0.375054 16.4042 0 14.5 0ZM21.75 15.95H15.95V21.75H13.05V15.95H7.25V13.05H13.05V7.25H15.95V13.05H21.75V15.95Z" fill="#0E404A"/>
</svg>
