<svg width="24" height="21" viewBox="0 0 24 21" fill="none" xmlns="http://www.w3.org/2000/svg">
<path d="M22.2769 10.4615L24 12.1969L15.9631 20.3077L11.6923 16L13.4154 14.2646L15.9631 16.8246L22.2769 10.4615ZM9.84615 0C11.1518 0 12.404 0.51868 13.3273 1.44194C14.2506 2.36519 14.7692 3.6174 14.7692 4.92308C14.7692 6.22876 14.2506 7.48096 13.3273 8.40422C12.404 9.32747 11.1518 9.84615 9.84615 9.84615C8.54047 9.84615 7.28827 9.32747 6.36501 8.40422C5.44176 7.48096 4.92308 6.22876 4.92308 4.92308C4.92308 3.6174 5.44176 2.36519 6.36501 1.44194C7.28827 0.51868 8.54047 0 9.84615 0ZM9.84615 2.46154C9.19331 2.46154 8.56721 2.72088 8.10558 3.18251C7.64396 3.64413 7.38462 4.27024 7.38462 4.92308C7.38462 5.57592 7.64396 6.20202 8.10558 6.66365C8.56721 7.12527 9.19331 7.38461 9.84615 7.38461C10.499 7.38461 11.1251 7.12527 11.5867 6.66365C12.0484 6.20202 12.3077 5.57592 12.3077 4.92308C12.3077 4.27024 12.0484 3.64413 11.5867 3.18251C11.1251 2.72088 10.499 2.46154 9.84615 2.46154ZM9.84615 11.0769C10.6831 11.0769 11.6923 11.1877 12.8123 11.3969L10.7569 13.4523L9.84615 13.4154C6.19077 13.4154 2.33846 15.2123 2.33846 16V17.3538H9.96923L12.3077 19.6923H0V16C0 12.7262 6.56 11.0769 9.84615 11.0769Z" fill="#0E404A"/>
</svg>
