<svg width="384" height="256" viewBox="0 0 384 256" fill="none" xmlns="http://www.w3.org/2000/svg">
<path d="M187.699 83.707C187.286 83.7076 186.876 83.6384 186.486 83.5021L180.224 81.3313C179.608 81.116 179.06 80.7433 178.633 80.2501C178.207 79.7569 177.917 79.1605 177.792 78.5204L176.538 72.0026C176.415 71.3617 176.462 70.6997 176.676 70.0832C176.89 69.4666 177.263 68.9173 177.756 68.4903L182.769 64.1486C183.263 63.7216 183.861 63.4316 184.502 63.3077C185.144 63.1837 185.806 63.23 186.424 63.442L192.691 65.618C193.308 65.8316 193.858 66.2037 194.286 66.6971C194.714 67.1905 195.004 67.7877 195.128 68.4289L196.378 74.9415C196.5 75.5827 196.452 76.2447 196.239 76.8617C196.026 77.4787 195.656 78.0294 195.164 78.459L190.147 82.8007C189.467 83.3878 188.598 83.7097 187.699 83.707ZM181.76 77.5322L187.617 79.5802L192.307 75.5252L191.135 69.4375L185.278 67.3895L180.593 71.4497L181.76 77.5322Z" fill="#F5F5F5"/>
<path d="M260.833 64.7885C260.42 64.7892 260.01 64.7199 259.62 64.5837L256.445 63.4829C255.829 63.2686 255.28 62.8961 254.853 62.4027C254.427 61.9094 254.137 61.3126 254.013 60.672L253.379 57.3747C253.256 56.7343 253.303 56.0729 253.516 55.4566C253.729 54.8402 254.1 54.2906 254.592 53.8624L257.152 51.6608C257.646 51.2342 258.243 50.9449 258.883 50.8218C259.524 50.6986 260.186 50.7461 260.803 50.9594L263.972 52.0602C264.589 52.2737 265.139 52.6459 265.567 53.1393C265.995 53.6327 266.285 54.2299 266.409 54.871L267.044 58.1683C267.167 58.8092 267.119 59.4712 266.905 60.0878C266.691 60.7043 266.319 61.2537 265.825 61.6806L263.265 63.8822C262.588 64.4639 261.726 64.7852 260.833 64.7885ZM257.992 59.6685L260.757 60.6259L262.963 58.711L262.41 55.8438L259.651 54.8864L257.439 56.832L257.992 59.6685Z" fill="#F5F5F5"/>
<path d="M348.508 113.035C348.103 113.032 347.704 112.938 347.34 112.761C346.976 112.584 346.656 112.327 346.404 112.011L344.617 109.778C344.322 109.409 344.129 108.969 344.057 108.502C343.985 108.035 344.037 107.557 344.207 107.116L345.231 104.453C345.403 104.013 345.687 103.626 346.056 103.33C346.424 103.034 346.864 102.841 347.331 102.769L350.157 102.334C350.625 102.263 351.103 102.316 351.544 102.487C351.985 102.659 352.374 102.943 352.671 103.312L354.458 105.544C354.753 105.913 354.946 106.353 355.018 106.821C355.09 107.288 355.038 107.766 354.867 108.206L353.843 110.869C353.672 111.31 353.387 111.698 353.018 111.994C352.648 112.29 352.207 112.483 351.739 112.553L348.913 112.988C348.779 113.014 348.644 113.03 348.508 113.035ZM350.582 104.366H350.485L347.658 104.802C347.545 104.818 347.438 104.865 347.348 104.936C347.259 105.007 347.189 105.1 347.146 105.206L346.122 107.868C346.081 107.974 346.068 108.089 346.085 108.202C346.102 108.314 346.148 108.42 346.22 108.508L348.006 110.741C348.079 110.828 348.172 110.896 348.278 110.937C348.384 110.978 348.498 110.992 348.611 110.976L351.437 110.541C351.55 110.525 351.658 110.479 351.748 110.408C351.838 110.337 351.907 110.243 351.949 110.137L352.973 107.474C353.013 107.368 353.026 107.254 353.009 107.141C352.992 107.029 352.946 106.923 352.876 106.834L351.089 104.602C351.027 104.528 350.949 104.469 350.861 104.428C350.774 104.387 350.678 104.366 350.582 104.366Z" fill="#E0E0E0"/>
<path d="M29.5424 135.286C29.0231 135.285 28.5104 135.168 28.0419 134.944C27.5733 134.72 27.1607 134.394 26.8339 133.991L22.6355 128.748C22.2587 128.272 22.0132 127.706 21.9233 127.106C21.8335 126.506 21.9025 125.893 22.1235 125.327L24.576 119.066C24.7971 118.5 25.1626 118.003 25.6361 117.623C26.1096 117.243 26.6744 116.993 27.2743 116.9L33.9303 115.876C34.5311 115.786 35.1451 115.855 35.711 116.076C36.277 116.297 36.7752 116.662 37.1559 117.135L41.3184 122.368C41.6957 122.844 41.9415 123.411 42.0313 124.012C42.1212 124.613 42.0519 125.228 41.8304 125.793L39.424 132.06C39.2032 132.627 38.8373 133.126 38.3628 133.507C37.8883 133.888 37.322 134.138 36.7207 134.231L30.0647 135.255C29.8918 135.281 29.7171 135.291 29.5424 135.286ZM25.4771 126.582L29.5731 131.702L36.0755 130.709L38.4615 124.565L34.3655 119.445L27.8631 120.443L25.4771 126.582Z" fill="#E0E0E0"/>
<path d="M46.5306 89.3955H42.5728C42.1013 89.397 41.6376 89.2748 41.2279 89.0413C40.8183 88.8077 40.477 88.4709 40.2381 88.0643L38.2566 84.639C38.0228 84.2278 37.8998 83.7629 37.8998 83.2899C37.8998 82.8169 38.0228 82.352 38.2566 81.9408L40.2381 78.5155C40.4747 78.1057 40.815 77.7655 41.2249 77.5291C41.6348 77.2928 42.0997 77.1685 42.5728 77.1689H46.5306C47.0037 77.1685 47.4686 77.2928 47.8785 77.5291C48.2884 77.7655 48.6287 78.1057 48.8653 78.5155L50.8467 81.9203C51.0806 82.3315 51.2035 82.7964 51.2035 83.2694C51.2035 83.7425 51.0806 84.2074 50.8467 84.6185L48.8653 88.0643C48.626 88.4705 48.2846 88.8071 47.8751 89.0406C47.4655 89.2741 47.002 89.3965 46.5306 89.3955ZM42.5728 79.1965C42.459 79.1967 42.3472 79.2266 42.2485 79.2831C42.1497 79.3397 42.0674 79.421 42.0096 79.519L40.0333 82.9443C39.9757 83.043 39.9454 83.1552 39.9454 83.2694C39.9454 83.3837 39.9757 83.4959 40.0333 83.5945L42.0096 87.0403C42.0671 87.139 42.1493 87.221 42.248 87.2784C42.3467 87.3359 42.4586 87.3667 42.5728 87.368H46.5306C46.6465 87.3685 46.7605 87.3385 46.8612 87.281C46.9618 87.2234 47.0456 87.1404 47.104 87.0403L49.0803 83.615C49.1379 83.5163 49.1682 83.4042 49.1682 83.2899C49.1682 83.1757 49.1379 83.0635 49.0803 82.9648L47.104 79.519C47.0462 79.421 46.9639 79.3397 46.8651 79.2831C46.7664 79.2266 46.6546 79.1967 46.5408 79.1965H42.5728Z" fill="#EBEBEB"/>
<path d="M114.063 50.6626L106.342 45.8037L96.8653 29.8089L83.6813 21.7397L81.1315 24.4994L82.4679 26.3017L86.6304 31.8825L103.153 54.0623L109.891 57.7692L114.063 50.6626Z" fill="#EBEBEB"/>
<path d="M104.361 62.1623L102.149 54.7997L77.8701 27.0596L74.6343 28.9745L79.7594 43.5613L93.8548 57.4058L97.0138 66.0484L104.361 62.1623Z" fill="#EBEBEB"/>
<path d="M117.514 52.0347C117.514 52.0347 144.932 67.0824 150.456 72.1614C155.981 77.2404 168.888 98.3912 167.578 101.095C166.267 103.798 165.263 104.167 162.289 101.545C159.314 98.9236 149.699 84.434 147.118 82.0891C144.538 79.7441 112.415 60.9281 112.415 60.9281L117.514 52.0347Z" fill="#E0E0E0"/>
<path d="M98.9236 58.4808C103.719 58.4808 107.607 54.5931 107.607 49.7973C107.607 45.0015 103.719 41.1138 98.9236 41.1138C94.1278 41.1138 90.2401 45.0015 90.2401 49.7973C90.2401 54.5931 94.1278 58.4808 98.9236 58.4808Z" fill="#EBEBEB"/>
<path d="M96.768 58.1991C97.4673 58.3307 98.1763 58.4043 98.8877 58.4192C99.7205 58.4221 100.549 58.2996 101.345 58.0557C103.262 57.4948 104.924 56.2839 106.045 54.6312C107.166 52.9784 107.677 50.9868 107.489 48.9984C107.402 48.1685 107.188 47.3569 106.854 46.5921C106.696 46.1994 106.511 45.8179 106.301 45.4503C106.077 45.079 105.825 44.7248 105.549 44.3904C104.406 42.9733 102.839 41.9599 101.078 41.4991C99.3171 41.0384 97.4547 41.1545 95.7645 41.8304C95.3639 41.9916 94.974 42.178 94.5971 42.3885C94.24 42.6097 93.8979 42.8543 93.5731 43.1207C92.925 43.6311 92.3602 44.2391 91.8989 44.9229C91.0286 46.184 90.5107 47.6546 90.3987 49.1828C90.3157 50.3968 90.4894 51.6146 90.9084 52.757C91.3274 53.8995 91.9824 54.9408 92.8307 55.8132C93.407 56.4212 94.0715 56.939 94.8019 57.3492C95.4321 57.6811 96.0878 57.9619 96.7629 58.1889C96.717 58.1947 96.6705 58.1947 96.6246 58.1889L96.2253 58.0762C96.0078 58.021 95.7954 57.9473 95.5904 57.8561C95.3029 57.7472 95.024 57.6171 94.7558 57.4669C93.9994 57.0763 93.3084 56.5702 92.7078 55.9668C91.8262 55.0874 91.1419 54.0303 90.7005 52.8659C90.259 51.7014 90.0707 50.4564 90.1478 49.2135C90.259 47.6416 90.7894 46.1282 91.6838 44.8308C92.1589 44.1254 92.739 43.4969 93.4042 42.9671C94.0858 42.4006 94.8554 41.9492 95.6826 41.6308C97.4225 40.933 99.3402 40.811 101.155 41.2828C102.969 41.7545 104.584 42.7952 105.764 44.2522C106.044 44.5996 106.301 44.9656 106.532 45.3479C106.749 45.7282 106.939 46.1234 107.1 46.5306C107.426 47.3136 107.626 48.143 107.694 48.9882C107.835 50.4529 107.602 51.9293 107.017 53.2795C106.433 54.6297 105.515 55.8097 104.351 56.7092C103.465 57.4005 102.453 57.9119 101.371 58.2144C100.56 58.4518 99.7169 58.5606 98.8723 58.537C98.5639 58.5383 98.2558 58.516 97.9507 58.4704C97.7247 58.4546 97.5004 58.4204 97.28 58.368L96.8755 58.2708C96.8365 58.252 96.8003 58.2279 96.768 58.1991Z" fill="#E0E0E0"/>
<path d="M97.6948 54.5437C96.7552 54.3007 95.9089 53.7844 95.2629 53.0602C94.6169 52.336 94.2002 51.4365 94.0657 50.4754C93.9311 49.5143 94.0846 48.5349 94.5068 47.6611C94.929 46.7873 95.601 46.0584 96.4376 45.5666C97.2742 45.0748 98.2379 44.8422 99.2067 44.8983C100.176 44.9544 101.106 45.2967 101.88 45.8817C102.655 46.4668 103.238 47.2683 103.556 48.185C103.875 49.1017 103.914 50.0923 103.67 51.0314C103.342 52.2889 102.529 53.3651 101.409 54.0236C100.289 54.6821 98.9528 54.8692 97.6948 54.5437Z" fill="#E0E0E0"/>
<path d="M97.6948 54.5436C97.6948 54.5077 98.1197 54.646 98.8877 54.646C99.8068 54.6376 100.705 54.3698 101.478 53.8734C102.252 53.377 102.87 52.6722 103.26 51.8402C103.618 51.0626 103.763 50.2039 103.68 49.3519C103.587 48.4127 103.218 47.5221 102.62 46.7919C101.982 46.003 101.107 45.4396 100.125 45.1843C99.1424 44.929 98.1041 44.9954 97.1623 45.3736C96.7151 45.5402 96.2983 45.7789 95.9284 46.0802C95.5644 46.3704 95.2482 46.7159 94.9914 47.1042C94.505 47.8076 94.2135 48.6273 94.1466 49.4799C94.0903 50.2241 94.2095 50.9712 94.4948 51.661C94.9077 52.6731 95.6488 53.517 96.5991 54.0572C96.954 54.249 97.3199 54.4199 97.6948 54.5692C97.2928 54.4986 96.9052 54.3619 96.5479 54.1647C95.5492 53.6422 94.7623 52.7901 94.3207 51.7532C94.0113 51.0372 93.8762 50.2581 93.9264 49.4799C93.9846 48.5835 94.2816 47.719 94.7866 46.9762C95.0488 46.5679 95.3716 46.2018 95.744 45.8908C96.1339 45.5685 96.573 45.3109 97.0445 45.1279C98.0379 44.7258 99.1343 44.6541 100.172 44.9233C101.209 45.1925 102.132 45.7884 102.805 46.6229C103.441 47.3918 103.835 48.3329 103.936 49.3263C104.016 50.221 103.855 51.1208 103.47 51.9324C103.134 52.6351 102.638 53.249 102.021 53.7244C101.129 54.4151 100.026 54.7768 98.898 54.7484C98.4882 54.748 98.0815 54.6788 97.6948 54.5436Z" fill="#E0E0E0"/>
<path d="M112.167 50.3718L108.619 56.547C107.579 58.3564 108.203 60.666 110.012 61.7057L110.345 61.897C112.155 62.9366 114.465 62.3125 115.504 60.5031L119.052 54.3279C120.092 52.5185 119.468 50.2088 117.658 49.1692L117.325 48.9779C115.516 47.9383 113.206 48.5623 112.167 50.3718Z" fill="#EBEBEB"/>
<path d="M108.616 56.5504C108.404 57.0063 108.26 57.4912 108.191 57.9891C108.138 58.5743 108.217 59.1638 108.421 59.7146C108.548 60.0536 108.72 60.3739 108.933 60.6669C109.183 60.9884 109.484 61.2669 109.824 61.4912C110.197 61.7426 110.599 61.9473 111.022 62.1005C111.761 62.3508 112.561 62.3581 113.304 62.1214C114.048 61.8846 114.696 61.4162 115.154 60.7847C116.332 58.8237 117.576 56.576 118.917 54.2669C119.224 53.7195 119.385 53.1024 119.385 52.4749C119.385 51.8474 119.224 51.2304 118.917 50.6829C118.646 50.1572 118.248 49.7069 117.76 49.3722C117.287 49.0395 116.753 48.803 116.188 48.6759C115.665 48.5697 115.125 48.5789 114.606 48.7027C114.087 48.8265 113.601 49.0619 113.183 49.3927C112.379 50.0019 112.026 50.9287 111.555 51.6762L109.445 55.2602L108.861 56.2279C108.799 56.3443 108.726 56.4541 108.641 56.5555C108.692 56.4327 108.75 56.3131 108.815 56.1971C108.954 55.9514 109.133 55.6186 109.358 55.209C109.87 54.3283 110.541 53.0995 111.406 51.5891L112.082 50.3911C112.331 49.9436 112.663 49.5475 113.06 49.2237C113.499 48.8709 114.009 48.6177 114.555 48.4815C115.102 48.3454 115.671 48.3296 116.224 48.4352C116.815 48.5644 117.375 48.8079 117.873 49.152C118.417 49.4931 118.867 49.967 119.178 50.5293C119.513 51.1175 119.689 51.7827 119.689 52.4595C119.689 53.1364 119.513 53.8016 119.178 54.3898C117.832 56.7091 116.618 58.921 115.384 60.9229C115.045 61.3775 114.611 61.7534 114.112 62.0247C113.614 62.296 113.063 62.4563 112.497 62.4947C111.985 62.5242 111.472 62.4547 110.986 62.2899C110.55 62.1225 110.135 61.9024 109.752 61.6346C109.397 61.3957 109.084 61.0999 108.826 60.7591C108.609 60.4425 108.437 60.098 108.314 59.7351C108.142 59.2709 108.065 58.7771 108.088 58.2828C108.111 57.7886 108.233 57.3039 108.447 56.8576C108.494 56.7507 108.551 56.6479 108.616 56.5504Z" fill="#E0E0E0"/>
<path d="M98.0327 70.4209C98.0327 70.4209 108.421 99.9224 112.538 106.2C116.654 112.477 135.419 128.646 138.296 127.796C141.174 126.946 141.681 126.009 139.602 122.676C137.523 119.343 124.754 107.474 122.87 104.541C120.986 101.607 107.607 66.8574 107.607 66.8574L98.0327 70.4209Z" fill="#E0E0E0"/>
<path d="M103.933 62.3826L97.2633 64.8791C95.3089 65.6106 94.3175 67.788 95.049 69.7424L95.1836 70.1021C95.9151 72.0565 98.0925 73.0479 100.047 72.3164L106.717 69.8199C108.671 69.0884 109.663 66.911 108.931 64.9565L108.797 64.5969C108.065 62.6425 105.888 61.6511 103.933 62.3826Z" fill="#EBEBEB"/>
<path d="M103.936 62.3773C104.053 62.3162 104.177 62.2681 104.305 62.234C104.672 62.1291 105.054 62.0808 105.436 62.0906C106.043 62.1108 106.635 62.2739 107.167 62.5668C107.497 62.7561 107.8 62.9885 108.068 63.258C108.36 63.57 108.602 63.9258 108.785 64.3127C108.987 64.7343 109.135 65.1799 109.225 65.6388C109.315 66.1483 109.301 66.6707 109.184 67.1748C109.052 67.7295 108.8 68.2487 108.446 68.6962C108.092 69.1436 107.645 69.5085 107.136 69.7655C104.965 70.641 102.584 71.496 100.076 72.4484C99.4406 72.6824 98.756 72.7488 98.0878 72.6412C97.4197 72.5336 96.7906 72.2556 96.2612 71.834C95.7568 71.4256 95.3625 70.8976 95.1143 70.298C94.8522 69.7459 94.7025 69.1472 94.674 68.5367C94.6551 67.9695 94.7608 67.405 94.9837 66.883C95.2067 66.3611 95.5413 65.8944 95.9642 65.5159C96.3483 65.1776 96.793 64.9152 97.2749 64.7428L98.5652 64.2666L102.467 62.8535L103.532 62.4797C103.654 62.4306 103.781 62.3929 103.91 62.3671C103.798 62.4354 103.677 62.4903 103.552 62.5309L102.528 62.9508L98.6573 64.4458C97.8535 64.7888 96.8704 64.9885 96.1383 65.6797C95.7442 66.0401 95.433 66.4817 95.2261 66.9741C95.0193 67.4665 94.9217 67.9978 94.9402 68.5316C94.9772 69.109 95.125 69.6739 95.3754 70.1956C95.6096 70.7493 95.9793 71.2353 96.4506 71.6087C96.9446 72.0018 97.5317 72.2607 98.1552 72.3602C98.7786 72.4598 99.4171 72.3967 100.009 72.177C102.502 71.2298 104.924 70.3645 107.054 69.5248C107.749 69.1726 108.314 68.6092 108.668 67.9155C109.022 67.2218 109.147 66.4336 109.025 65.6644C108.941 65.2205 108.801 64.7889 108.611 64.3792C108.445 64.0045 108.22 63.6587 107.945 63.3552C107.694 63.0918 107.408 62.8644 107.095 62.6794C106.587 62.3827 106.018 62.2075 105.431 62.1674C104.925 62.1607 104.421 62.2315 103.936 62.3773Z" fill="#E0E0E0"/>
<path d="M365.957 232.177C365.957 232.248 287.908 232.31 191.652 232.31C95.3958 232.31 17.3312 232.248 17.3312 232.177C17.3312 232.105 95.3651 232.043 191.652 232.043C287.939 232.043 365.957 232.105 365.957 232.177Z" fill="#263238"/>
<path d="M220.621 57.303C220.208 57.3037 219.797 57.2344 219.407 57.0982L213.135 54.9273C212.52 54.7121 211.971 54.3393 211.545 53.8461C211.118 53.353 210.828 52.7566 210.703 52.1164L209.449 45.5987C209.326 44.9578 209.374 44.2958 209.588 43.6792C209.801 43.0627 210.174 42.5133 210.667 42.0864L215.685 37.7446C216.179 37.3185 216.776 37.0294 217.417 36.9063C218.057 36.7832 218.719 36.8304 219.336 37.0432L225.603 39.214C226.219 39.4285 226.769 39.801 227.196 40.2942C227.624 40.7874 227.915 41.3842 228.04 42.0249L229.294 48.5427C229.415 49.1835 229.365 49.8448 229.152 50.4608C228.938 51.0769 228.567 51.6264 228.075 52.055L223.058 56.3968C222.381 56.9816 221.516 57.3032 220.621 57.303ZM214.682 51.1283L220.544 53.1763L225.229 49.1212L224.056 43.008L218.199 40.96L213.504 45.056L214.682 51.1283Z" fill="#E0E0E0"/>
<path d="M214.682 51.128C214.639 50.9955 214.605 50.8604 214.579 50.7236L214.323 49.5204C214.103 48.44 213.811 46.9194 213.417 45.0608C213.413 45.0434 213.414 45.0252 213.419 45.0081C213.425 44.991 213.435 44.9757 213.448 44.9636L218.117 40.8676C218.136 40.8577 218.157 40.8525 218.179 40.8525C218.2 40.8525 218.221 40.8577 218.24 40.8676L224.097 42.9156L224.189 43.018V43.105V43.2074L224.23 43.4071L224.307 43.8064C224.358 44.0676 224.405 44.3184 224.456 44.5949C224.558 45.1069 224.655 45.6189 224.753 46.1309C224.947 47.1549 225.137 48.138 225.316 49.0852C225.32 49.1067 225.319 49.1289 225.311 49.1496C225.304 49.1703 225.292 49.1887 225.275 49.2029L220.605 53.2477C220.591 53.2563 220.574 53.2608 220.557 53.2608C220.54 53.2608 220.523 53.2563 220.508 53.2477L216.223 51.7117L215.071 51.2816C214.937 51.2382 214.807 51.1852 214.682 51.1229C214.828 51.1535 214.971 51.1946 215.112 51.2458L216.294 51.6247L220.575 53.0583H220.477L225.147 48.9623L225.106 49.0852C224.922 48.1328 224.727 47.1498 224.533 46.1309C224.435 45.6189 224.333 45.1069 224.23 44.5949C224.179 44.3338 224.133 44.0829 224.082 43.8064L224.005 43.4071L223.964 43.2074V43.105V43.0538V43.018C223.964 43.018 224.128 43.2074 224.046 43.1152L218.194 41.0672H218.317L213.612 45.1069L213.647 45.0096C213.98 46.8631 214.257 48.3735 214.451 49.4538C214.538 49.9658 214.61 50.3703 214.661 50.6775C214.682 50.8267 214.689 50.9775 214.682 51.128Z" fill="#263238"/>
<path d="M220.621 57.3029C220.621 57.3029 220.841 57.3029 221.256 57.2209C221.853 57.1071 222.414 56.8487 222.889 56.4683L227.983 52.0088C228.541 51.5276 228.939 50.8884 229.125 50.1758C229.225 49.8005 229.267 49.4119 229.248 49.0238C229.203 48.6192 229.134 48.2175 229.043 47.8206C228.721 46.1669 228.378 44.4056 228.019 42.5521C227.956 42.0885 227.83 41.6356 227.645 41.2056C227.446 40.7718 227.163 40.3821 226.811 40.0595C226.459 39.7368 226.047 39.4876 225.597 39.3265L224.154 38.8145L221.189 37.7905L219.653 37.2785C219.166 37.0738 218.645 36.9643 218.117 36.956C217.587 36.9554 217.062 37.0707 216.581 37.2939C216.114 37.5285 215.685 37.8342 215.311 38.2001L212.941 40.2481L210.652 42.2296C209.955 42.868 209.536 43.7538 209.485 44.6974C209.477 45.1544 209.529 45.6105 209.638 46.0542C209.725 46.5099 209.807 46.9553 209.894 47.3957C210.058 48.2763 210.222 49.1262 210.376 49.9557C210.529 50.7851 210.678 51.5838 210.836 52.3313C211.027 53.0402 211.427 53.6752 211.983 54.1541C212.242 54.3748 212.53 54.5592 212.838 54.7019C213.14 54.835 213.463 54.9323 213.76 55.0449L215.475 55.6491L218.219 56.6219C218.787 56.851 219.368 57.0442 219.96 57.2005C220.37 57.2773 220.595 57.2721 220.595 57.2824C220.381 57.3084 220.164 57.3084 219.95 57.2824C219.351 57.1445 218.763 56.9649 218.189 56.7448L215.455 55.8078L213.734 55.2241C213.427 55.1166 213.115 55.0245 212.792 54.8862C212.466 54.7388 212.161 54.5476 211.886 54.3179C211.295 53.8188 210.869 53.1533 210.662 52.4081C210.488 51.6299 210.35 50.8414 210.186 50.0171C210.022 49.1928 209.859 48.3377 209.674 47.4571C209.585 47.0236 209.498 46.5782 209.413 46.1208C209.298 45.6588 209.243 45.1838 209.249 44.7077C209.302 43.6967 209.749 42.7466 210.493 42.0606L212.777 40.0741L215.147 38.0261C215.352 37.852 215.542 37.6779 215.762 37.5141C215.986 37.3473 216.226 37.2033 216.479 37.084C216.989 36.8472 217.544 36.7249 218.107 36.7256C218.664 36.7343 219.215 36.849 219.73 37.0635L221.266 37.5755L224.23 38.5995L225.674 39.1115C226.161 39.2854 226.609 39.5553 226.99 39.9051C227.364 40.2481 227.665 40.6624 227.876 41.1237C228.069 41.573 228.2 42.0468 228.265 42.5317C228.606 44.3919 228.939 46.1498 229.263 47.8053C229.356 48.212 229.422 48.6241 229.463 49.0392C229.493 49.6286 229.386 50.2169 229.152 50.7585C228.917 51.3001 228.561 51.7804 228.111 52.1624L222.961 56.5605C222.465 56.9392 221.882 57.189 221.266 57.2875C221.052 57.3191 220.836 57.3242 220.621 57.3029Z" fill="#263238"/>
<path d="M176.983 46.6429C176.577 46.642 176.177 46.5494 175.811 46.3721C175.446 46.1948 175.126 45.9373 174.874 45.6189L173.087 43.3917C172.792 43.0215 172.599 42.5805 172.527 42.1125C172.455 41.6446 172.507 41.1659 172.677 40.7242L173.701 38.0618C173.873 37.6212 174.159 37.2336 174.528 36.938C174.897 36.6423 175.338 36.449 175.805 36.3773L178.627 35.9421C179.095 35.8713 179.573 35.9243 180.014 36.0959C180.455 36.2675 180.843 36.5516 181.14 36.9201L182.927 39.1524C183.222 39.5216 183.416 39.9618 183.487 40.4289C183.559 40.8961 183.507 41.3739 183.337 41.8148L182.313 44.4823C182.143 44.9232 181.861 45.3121 181.495 45.6103C181.128 45.9085 180.69 46.1056 180.224 46.1821L177.398 46.6122C177.261 46.633 177.122 46.6432 176.983 46.6429ZM179.031 37.9748H178.934L176.128 38.3997C176.015 38.4166 175.908 38.4628 175.818 38.5337C175.728 38.6047 175.659 38.698 175.616 38.8042L174.592 41.4717C174.551 41.5777 174.539 41.6924 174.556 41.8046C174.573 41.9168 174.619 42.0226 174.689 42.1117L176.476 44.3389C176.548 44.4272 176.641 44.4954 176.747 44.5367C176.853 44.578 176.968 44.591 177.08 44.5745L179.907 44.1393C180.02 44.1229 180.127 44.0769 180.217 44.0059C180.307 43.9349 180.376 43.8413 180.419 43.7348L181.443 41.0724C181.484 40.9666 181.497 40.8517 181.48 40.7393C181.463 40.6269 181.416 40.521 181.345 40.4324L179.558 38.2052C179.496 38.1319 179.418 38.0733 179.331 38.0335C179.243 37.9937 179.148 37.9736 179.052 37.9748H179.031Z" fill="#E0E0E0"/>
<path d="M179.052 37.9748C179.123 37.9524 179.2 37.9524 179.272 37.9748C179.36 37.9989 179.443 38.0427 179.512 38.1028C179.599 38.1887 179.681 38.2793 179.758 38.3742L181.212 40.1201L181.448 40.4119C181.536 40.5324 181.586 40.6771 181.591 40.8267C181.588 40.974 181.553 41.119 181.489 41.2516C181.443 41.3796 181.391 41.5076 181.345 41.6407C181.14 42.1527 180.925 42.7313 180.7 43.3252C180.644 43.4737 180.588 43.6222 180.526 43.7758C180.459 43.9608 180.323 44.1129 180.147 44.2007C179.982 44.2622 179.81 44.3017 179.635 44.3185L179.123 44.4004C178.432 44.5028 177.756 44.6206 176.988 44.7179C176.878 44.7182 176.769 44.695 176.668 44.65C176.568 44.605 176.478 44.5391 176.404 44.4567L176.067 44.0318L175.406 43.2126L174.776 42.4139L174.618 42.2193C174.557 42.1475 174.508 42.0662 174.474 41.9787C174.405 41.7973 174.405 41.5968 174.474 41.4155L175.14 39.7412L175.442 38.9835C175.486 38.8544 175.544 38.7308 175.616 38.6148C175.698 38.4994 175.812 38.4104 175.944 38.3588C176.927 38.1796 177.674 38.1079 178.212 38.0363C178.487 37.9825 178.766 37.9584 179.046 37.9646C178.979 37.9897 178.908 38.0069 178.836 38.0158L178.232 38.1387C177.72 38.2411 176.911 38.3537 176.015 38.5329C175.919 38.5751 175.836 38.6423 175.775 38.7275C175.717 38.834 175.669 38.9454 175.631 39.0603L175.345 39.8231L174.7 41.5076C174.653 41.6314 174.653 41.7678 174.7 41.8916C174.771 42.0235 174.858 42.1456 174.961 42.2551L175.616 43.059L176.276 43.8782L176.609 44.2929C176.658 44.3466 176.717 44.3894 176.783 44.4185C176.849 44.4476 176.921 44.4624 176.993 44.4619L179.087 44.1495L179.599 44.0727C179.755 44.063 179.908 44.032 180.055 43.9806C180.176 43.923 180.27 43.82 180.316 43.6939C180.372 43.5403 180.434 43.3918 180.49 43.2433C180.726 42.6596 180.946 42.0964 181.156 41.5691C181.214 41.4428 181.265 41.3148 181.309 41.1851C181.365 41.0786 181.398 40.9618 181.407 40.842C181.402 40.7329 181.368 40.627 181.309 40.5348L181.084 40.2481L179.697 38.451C179.636 38.3255 179.545 38.2166 179.433 38.1337C179.32 38.0508 179.189 37.9963 179.052 37.9748Z" fill="#263238"/>
<path d="M176.983 46.6431C177.094 46.6178 177.207 46.6007 177.321 46.5919L178.299 46.4229L179.835 46.1618C180.154 46.127 180.467 46.0513 180.767 45.9365C181.095 45.8011 181.391 45.5988 181.637 45.3426C181.919 45.0622 182.136 44.723 182.272 44.3493C182.42 43.9602 182.579 43.5506 182.738 43.1257C183.02 42.2706 183.593 41.3951 183.383 40.4172C183.292 39.9213 183.065 39.4604 182.728 39.086L181.704 37.8162L181.192 37.1609C181.029 36.9406 180.836 36.7442 180.618 36.5772C180.175 36.2448 179.636 36.0652 179.082 36.0652C178.797 36.0757 178.513 36.1082 178.232 36.1625L177.377 36.2905L175.713 36.5516C175.203 36.6624 174.738 36.9268 174.382 37.3093C174.21 37.4928 174.066 37.6996 173.952 37.9237C173.844 38.1439 173.757 38.3999 173.665 38.6303L173.117 40.0178C172.927 40.4361 172.776 40.8716 172.667 41.3183C172.606 41.7216 172.638 42.1334 172.759 42.5227C172.881 42.912 173.089 43.2687 173.368 43.566L174.653 45.2044C174.848 45.4399 175.007 45.6754 175.191 45.8546C175.358 46.0186 175.545 46.1597 175.749 46.2745C176.141 46.4823 176.571 46.6078 177.014 46.6431C177.014 46.6431 176.983 46.6431 176.922 46.6431C176.86 46.6431 176.778 46.6431 176.666 46.6431C176.329 46.6127 176.003 46.5171 175.703 46.3615C175.487 46.2467 175.286 46.1057 175.104 45.9417C174.903 45.7351 174.714 45.518 174.536 45.2914L173.22 43.6786C172.919 43.3635 172.693 42.984 172.56 42.5689C172.427 42.1538 172.39 41.714 172.452 41.2825C172.555 40.8164 172.704 40.3619 172.897 39.9257L173.435 38.5381C173.532 38.2975 173.609 38.062 173.727 37.8111C173.849 37.5632 174.006 37.334 174.193 37.1301C174.575 36.7185 175.07 36.4283 175.616 36.2956C176.179 36.1983 176.727 36.1215 177.295 36.0293L178.15 35.9013C178.444 35.8425 178.742 35.8082 179.041 35.7989C179.651 35.7934 180.247 35.9876 180.736 36.3519C180.971 36.5315 181.18 36.7435 181.356 36.9817L181.868 37.637C182.216 38.0671 182.554 38.4972 182.892 38.9119C183.257 39.3194 183.5 39.8216 183.593 40.3609C183.684 40.8781 183.627 41.4104 183.429 41.8969C183.255 42.3423 183.081 42.7775 182.917 43.2025C182.753 43.6274 182.589 44.0268 182.436 44.421C182.292 44.8061 182.067 45.1555 181.775 45.445C181.256 45.9443 180.575 46.2405 179.855 46.2796L178.319 46.4946C177.894 46.5509 177.562 46.597 177.336 46.6124C177.22 46.6366 177.102 46.6469 176.983 46.6431Z" fill="#263238"/>
<path d="M226.862 39.9614C226.502 40.5812 226.057 41.1481 225.541 41.6459C225.088 42.2064 224.542 42.6859 223.928 43.0641C224.36 42.498 224.834 41.9657 225.347 41.4718C225.793 40.9127 226.301 40.406 226.862 39.9614Z" fill="#263238"/>
<path d="M217.262 37.0176C217.597 37.6197 217.827 38.274 217.943 38.9529C218.151 39.6149 218.242 40.3077 218.214 41.0009C217.985 40.3588 217.814 39.6974 217.702 39.0246C217.494 38.3705 217.347 37.6987 217.262 37.0176Z" fill="#263238"/>
<path d="M213.443 44.9383C212.772 44.8064 212.115 44.618 211.476 44.3751C210.812 44.212 210.161 43.9963 209.531 43.73C210.908 43.8411 212.243 44.2536 213.443 44.9383Z" fill="#263238"/>
<path d="M212.352 53.8215C212.62 53.2861 212.965 52.7927 213.376 52.3571C213.728 51.8694 214.149 51.4349 214.625 51.0669C214.361 51.6043 214.015 52.0981 213.601 52.5312C213.249 53.019 212.828 53.4535 212.352 53.8215Z" fill="#263238"/>
<path d="M220.974 56.6219C220.768 56.0949 220.647 55.5384 220.616 54.9733C220.492 54.419 220.46 53.8485 220.518 53.2837C220.723 53.8131 220.844 54.371 220.877 54.9375C220.997 55.4904 221.03 56.0588 220.974 56.6219Z" fill="#263238"/>
<path d="M228.26 50.0634C227.735 50.0022 227.225 49.8533 226.749 49.6231C226.241 49.4775 225.761 49.2454 225.331 48.937C226.363 49.1465 227.353 49.5272 228.26 50.0634Z" fill="#263238"/>
<path d="M60.1302 173.604C60.2685 173.174 76.2224 121.022 76.2224 121.022L75.8231 114.545L79.9959 107.674L85.1773 109.389L84.4707 117.069L80.7843 122.67L64.7382 175.104L60.1302 173.604Z" fill="#E0E0E0"/>
<path d="M60.1302 173.604L60.4374 173.691L61.3232 173.967L64.7382 175.038L64.6819 175.068C67.2778 166.564 73.2784 146.883 80.6717 122.65L84.353 117.054V117.11C84.5782 114.657 84.8189 112.051 85.0595 109.43L85.1517 109.568L84.7216 109.43L79.9702 107.858L80.1239 107.802L75.9511 114.673V114.596C76.0842 116.804 76.2156 118.963 76.3453 121.073V121.119C71.681 136.269 67.6413 149.391 64.769 158.73C63.3251 163.405 62.168 167.127 61.3744 169.692C60.9802 170.972 60.6678 171.96 60.4579 172.636L60.2173 173.399L60.1302 173.66C60.1476 173.575 60.1699 173.492 60.1968 173.409C60.248 173.23 60.3197 172.979 60.417 172.657C60.6218 171.981 60.929 170.998 61.2976 169.728C62.0707 167.168 63.1971 163.441 64.6102 158.771C67.4672 149.402 71.4711 136.243 76.0995 121.042V121.088C75.9664 118.979 75.8316 116.82 75.6951 114.611V114.57V114.534L79.8679 107.663L79.9191 107.571L80.0215 107.607L84.7779 109.174L85.2029 109.317L85.3053 109.348V109.455C85.0646 112.092 84.824 114.698 84.5936 117.135V117.171V117.197L80.9123 122.798V122.762C73.4422 146.944 67.3904 166.6 64.769 175.104V175.15H64.7229L61.3027 174.019L60.4374 173.727L60.1302 173.604Z" fill="#263238"/>
<path d="M56.2851 176.128L49.1171 185.815L39.0973 222.167C39.0973 222.167 37.6586 229.581 45.8455 231.685C55.0615 234.051 57.1607 227.006 57.1607 227.006L66.8887 191.509L66.7863 179.2L69.1875 176.492C69.2961 176.365 69.3723 176.215 69.4094 176.052C69.4466 175.89 69.4436 175.721 69.4007 175.56C69.3578 175.399 69.2764 175.251 69.1634 175.129C69.0504 175.007 68.9093 174.914 68.7523 174.858L57.2426 171.059C57.0826 171.009 56.9128 170.999 56.7481 171.03C56.5834 171.061 56.4288 171.132 56.2979 171.237C56.167 171.341 56.0637 171.477 55.9972 171.63C55.9307 171.784 55.903 171.952 55.9165 172.119L56.2851 176.128Z" fill="#93C840"/>
<path d="M66.8477 179.625C66.8221 179.697 64.4106 178.995 61.4614 178.058C58.5123 177.121 56.1315 176.302 56.1571 176.231C56.1827 176.159 58.5891 176.865 61.5434 177.802C64.4976 178.739 66.8682 179.553 66.8477 179.625Z" fill="#263238"/>
<path d="M66.9091 191.514C66.6665 191.499 66.4262 191.457 66.1923 191.391C65.7315 191.294 65.0762 191.135 64.2621 190.93C62.6339 190.526 60.4016 189.906 57.9696 189.128C55.5376 188.35 53.3616 187.561 51.7898 186.952C51.0115 186.645 50.3818 186.389 49.9517 186.204C49.7234 186.122 49.5039 186.018 49.2963 185.892C49.5349 185.941 49.7681 186.013 49.9926 186.107L51.8563 186.773C53.4333 187.336 55.6144 188.099 58.0464 188.872C60.4784 189.645 62.7005 190.295 64.3082 190.751L66.2179 191.289C66.4547 191.342 66.6861 191.418 66.9091 191.514Z" fill="#263238"/>
<g opacity="0.3">
<path d="M53.4335 189.669L53.1829 189.596C52.2871 189.335 51.349 189.849 51.0878 190.745L42.2152 221.165C41.9539 222.061 42.4683 222.999 43.3641 223.26L43.6148 223.333C44.5106 223.595 45.4486 223.08 45.7099 222.185L54.5825 191.764C54.8438 190.869 54.3294 189.931 53.4335 189.669Z" fill="black"/>
</g>
<g opacity="0.3">
<path d="M58.5701 191.335L58.3194 191.262C57.4236 191 56.4856 191.515 56.2243 192.411L47.3517 222.831C47.0905 223.727 47.6049 224.665 48.5007 224.926L48.7514 224.999C49.6472 225.26 50.5852 224.746 50.8465 223.85L59.719 193.43C59.9803 192.534 59.4659 191.596 58.5701 191.335Z" fill="black"/>
</g>
<g opacity="0.3">
<path d="M63.2036 192.867L62.9532 192.793C62.0584 192.528 61.1183 193.039 60.8535 193.934L51.859 224.318C51.5941 225.213 52.1047 226.153 52.9995 226.418L53.2499 226.492C54.1446 226.757 55.0847 226.246 55.3496 225.351L64.3441 194.967C64.6089 194.072 64.0983 193.132 63.2036 192.867Z" fill="black"/>
</g>
<path d="M80.7485 122.675C79.9655 122.544 79.1996 122.326 78.465 122.025C77.7021 121.811 76.9667 121.508 76.2736 121.124C77.0542 121.259 77.818 121.477 78.552 121.774C79.3163 121.99 80.0532 122.292 80.7485 122.675Z" fill="#263238"/>
<path d="M85.1875 109.389C85.1492 109.633 85.0892 109.872 85.0083 110.106C84.8599 110.618 84.6653 111.263 84.4247 112.061L82.3767 118.717L82.3357 118.845L82.2077 118.804L79.8474 117.98L77.4205 117.13L77.3027 117.089L77.3386 116.972C78.0759 114.34 78.7261 112.031 79.2074 110.316C79.4429 109.522 79.6323 108.867 79.7808 108.375C79.841 108.137 79.9197 107.904 80.0163 107.679C79.9883 107.923 79.9386 108.165 79.8679 108.401L79.3559 110.362C78.9002 112.067 78.2858 114.381 77.5792 117.018L77.4973 116.859L79.9293 117.709L82.2845 118.533L82.1155 118.62L84.2659 112.01C84.5322 111.217 84.7779 110.572 84.9213 110.08C84.9904 109.843 85.0795 109.611 85.1875 109.389Z" fill="#263238"/>
<path d="M289.557 78.7866H94.5366C90.4167 78.7866 87.0768 82.1265 87.0768 86.2465V221.281C87.0768 225.401 90.4167 228.741 94.5366 228.741H289.557C293.677 228.741 297.017 225.401 297.017 221.281V86.2465C297.017 82.1265 293.677 78.7866 289.557 78.7866Z" fill="#455A64"/>
<path d="M78.8694 219.054H306.325V223.063C306.325 225.48 305.365 227.798 303.656 229.507C301.947 231.217 299.629 232.177 297.212 232.177H87.983C85.566 232.177 83.2479 231.217 81.5388 229.507C79.8296 227.798 78.8694 225.48 78.8694 223.063V219.054Z" fill="#455A64"/>
<path d="M290.796 84.7461H92.7139V211.379H290.796V84.7461Z" fill="#263238"/>
<path d="M171.352 217.651L174.173 222.5H213.889L216.51 217.651H171.352Z" fill="#263238"/>
<path d="M285.446 89.0317H98.4637C97.539 89.0317 96.7894 89.7813 96.7894 90.706V209.295C96.7894 210.22 97.539 210.97 98.4637 210.97H285.446C286.371 210.97 287.12 210.22 287.12 209.295V90.706C287.12 89.7813 286.371 89.0317 285.446 89.0317Z" fill="#EBEBEB"/>
<path d="M286.921 211.149H96.5898L96.7895 98.1455H286.921V211.149Z" fill="#FAFAFA"/>
<path d="M112.784 93.7421C112.769 94.0483 112.665 94.3433 112.484 94.5907C112.303 94.838 112.053 95.0268 111.766 95.1337C111.479 95.2406 111.166 95.2609 110.868 95.192C110.569 95.1232 110.297 94.9682 110.085 94.7464C109.874 94.5245 109.732 94.2455 109.678 93.9439C109.623 93.6422 109.658 93.3312 109.779 93.0494C109.899 92.7676 110.1 92.5273 110.356 92.3583C110.611 92.1893 110.911 92.099 111.218 92.0986C111.643 92.1094 112.047 92.2884 112.341 92.5965C112.634 92.9046 112.794 93.3166 112.784 93.7421Z" fill="#263238"/>
<path d="M103.282 93.7421C103.267 94.0483 103.162 94.3433 102.981 94.5907C102.8 94.838 102.55 95.0268 102.263 95.1337C101.976 95.2406 101.664 95.2609 101.365 95.192C101.066 95.1232 100.794 94.9682 100.583 94.7464C100.371 94.5245 100.229 94.2455 100.175 93.9439C100.12 93.6422 100.156 93.3312 100.276 93.0494C100.397 92.7676 100.597 92.5273 100.853 92.3583C101.109 92.1893 101.408 92.099 101.715 92.0986C102.14 92.1094 102.544 92.2884 102.838 92.5965C103.132 92.9046 103.291 93.3166 103.282 93.7421Z" fill="#263238"/>
<path d="M108.166 93.7421C108.151 94.0483 108.047 94.3433 107.866 94.5907C107.685 94.838 107.435 95.0268 107.148 95.1337C106.86 95.2406 106.548 95.2609 106.249 95.192C105.951 95.1232 105.679 94.9682 105.467 94.7464C105.256 94.5245 105.114 94.2455 105.059 93.9439C105.005 93.6422 105.04 93.3312 105.161 93.0494C105.281 92.7676 105.482 92.5273 105.737 92.3583C105.993 92.1893 106.293 92.099 106.599 92.0986C107.025 92.1094 107.429 92.2884 107.722 92.5965C108.016 92.9046 108.176 93.3166 108.166 93.7421Z" fill="#263238"/>
<path d="M295.215 217.651C295.215 217.733 248.623 217.795 191.151 217.795C133.679 217.795 87.0768 217.733 87.0768 217.651C87.0768 217.569 133.669 217.503 191.151 217.503C248.633 217.503 295.215 217.569 295.215 217.651Z" fill="#263238"/>
<path d="M171.511 119.808C174.605 117.94 177.935 116.494 181.413 115.507L183.461 105.702L200.019 105.411L202.405 115.139C205.914 116.005 209.292 117.334 212.45 119.091L220.821 113.608L232.736 125.112L227.554 133.678C229.423 136.774 230.87 140.106 231.855 143.585L241.655 145.633L241.947 162.191L232.219 164.577C231.35 168.077 230.019 171.445 228.261 174.592L233.749 182.963L222.245 194.878L213.689 189.691C210.593 191.56 207.261 193.006 203.782 193.992L201.734 203.797L185.171 204.083L182.79 194.355C179.29 193.498 175.921 192.177 172.77 190.428L164.399 195.917L152.485 184.412L157.671 175.857C155.801 172.761 154.353 169.429 153.365 165.95L143.566 163.902L143.274 147.343L153.002 144.958C153.867 141.448 155.197 138.07 156.955 134.912L151.471 126.541L162.976 114.627L171.511 119.808ZM180.338 141.87C177.897 144.398 176.261 147.593 175.636 151.051C175.012 154.508 175.426 158.074 176.828 161.296C178.229 164.518 180.555 167.252 183.51 169.153C186.465 171.053 189.918 172.035 193.431 171.973C196.944 171.912 200.36 170.81 203.247 168.807C206.134 166.804 208.362 163.99 209.65 160.721C210.938 157.451 211.227 153.874 210.482 150.44C209.736 147.006 207.989 143.871 205.461 141.43C203.782 139.81 201.8 138.537 199.628 137.683C197.457 136.829 195.138 136.411 192.805 136.454C190.472 136.496 188.17 136.997 186.031 137.929C183.892 138.861 181.957 140.206 180.338 141.886V141.87Z" fill="#E0E0E0"/>
<path d="M237.666 126.141C237.893 124.917 238.28 123.727 238.818 122.603L236.77 119.839L240.477 115.497L243.549 117.105C244.574 116.398 245.688 115.832 246.862 115.42L247.374 112.005L253.062 111.56L254.086 114.852C255.312 115.078 256.502 115.467 257.624 116.009L260.389 113.961L264.731 117.673L263.123 120.745C263.832 121.77 264.4 122.886 264.812 124.063L268.222 124.575L268.668 130.268L265.376 131.292C265.151 132.518 264.762 133.708 264.219 134.83L266.267 137.6L262.56 141.937L259.488 140.329C258.462 141.038 257.346 141.606 256.17 142.018L255.658 145.433L249.97 145.879L248.946 142.582C247.72 142.357 246.53 141.97 245.408 141.43L242.638 143.478L238.306 139.725L239.914 136.653C239.206 135.627 238.638 134.511 238.224 133.335L234.814 132.823L234.369 127.129L237.661 126.105L237.666 126.141ZM245.382 127.867C245.261 129.147 245.544 130.433 246.192 131.544C246.841 132.655 247.821 133.534 248.996 134.058C250.17 134.582 251.48 134.724 252.74 134.465C253.999 134.205 255.146 133.556 256.017 132.61C256.889 131.664 257.441 130.469 257.597 129.192C257.753 127.916 257.505 126.622 256.886 125.494C256.268 124.366 255.312 123.461 254.152 122.906C252.991 122.35 251.686 122.173 250.42 122.399C249.098 122.634 247.89 123.297 246.98 124.284C246.07 125.272 245.509 126.53 245.382 127.867Z" fill="#E0E0E0"/>
<path d="M112.979 183.296C113.02 181.825 113.26 180.367 113.691 178.96L110.788 176.128L114.341 170.404L118.191 171.735C119.266 170.726 120.472 169.865 121.775 169.175L121.744 165.105L128.308 163.569L130.085 167.23C131.556 167.271 133.015 167.51 134.421 167.941L137.284 165.038L143.008 168.592L141.676 172.442C142.686 173.517 143.547 174.722 144.236 176.026L148.307 175.995L149.843 182.554L146.177 184.32C146.131 185.791 145.89 187.249 145.46 188.657L148.363 191.514L144.81 197.243L140.96 195.912C139.885 196.922 138.68 197.783 137.376 198.472L137.406 202.542L130.848 204.078L129.066 200.417C127.599 200.366 126.146 200.118 124.745 199.68L121.888 202.583L116.158 199.03L117.49 195.18C116.48 194.104 115.62 192.899 114.93 191.596L110.834 191.626L109.298 185.068L112.958 183.286L112.979 183.296ZM122.466 185.139C122.795 186.53 123.529 187.792 124.574 188.766C125.62 189.74 126.931 190.382 128.342 190.611C129.752 190.841 131.199 190.647 132.499 190.054C133.799 189.462 134.895 188.497 135.648 187.282C136.4 186.068 136.776 184.657 136.727 183.229C136.678 181.801 136.207 180.419 135.374 179.258C134.54 178.098 133.381 177.21 132.044 176.708C130.706 176.205 129.249 176.11 127.858 176.435C126.93 176.652 126.054 177.049 125.28 177.605C124.506 178.161 123.85 178.864 123.349 179.674C122.848 180.485 122.512 181.386 122.361 182.326C122.209 183.267 122.245 184.228 122.466 185.155V185.139Z" fill="#E0E0E0"/>
<path d="M124.76 128.604C124.927 127.68 125.22 126.782 125.63 125.937L124.094 123.848L126.89 120.576L129.194 121.789C129.967 121.256 130.807 120.828 131.692 120.515L132.071 117.955L136.362 117.617L137.13 120.1C138.053 120.272 138.95 120.565 139.797 120.97L141.886 119.434L145.153 122.23L143.945 124.534C144.478 125.306 144.905 126.146 145.214 127.032L147.774 127.406L148.112 131.697L145.634 132.444C145.465 133.368 145.174 134.265 144.769 135.112L146.305 137.196L143.509 140.467L141.205 139.254C140.434 139.789 139.593 140.218 138.707 140.529L138.333 143.089L134.043 143.421L133.269 140.938C132.345 140.77 131.448 140.477 130.602 140.068L128.518 141.604L125.246 138.808L126.455 136.504C125.921 135.732 125.494 134.892 125.185 134.006L122.625 133.627L122.292 129.336L124.775 128.568L124.76 128.604ZM130.571 130.688C130.644 131.596 130.983 132.462 131.548 133.177C132.112 133.891 132.875 134.423 133.741 134.704C134.607 134.985 135.537 135.004 136.414 134.757C137.29 134.51 138.074 134.009 138.666 133.317C139.258 132.625 139.632 131.773 139.74 130.869C139.848 129.965 139.686 129.049 139.274 128.237C138.862 127.425 138.219 126.753 137.425 126.306C136.632 125.859 135.724 125.658 134.816 125.727C134.211 125.773 133.621 125.938 133.08 126.212C132.539 126.486 132.058 126.865 131.663 127.326C131.269 127.787 130.969 128.321 130.782 128.898C130.595 129.475 130.523 130.083 130.571 130.688Z" fill="#EBEBEB"/>
<path d="M237.881 174.812C238.029 174.018 238.281 173.247 238.629 172.518L237.292 170.726L239.694 167.915L241.675 168.939C242.338 168.48 243.06 168.111 243.82 167.844L244.143 165.632L247.829 165.345L248.49 167.48C249.284 167.626 250.056 167.877 250.784 168.228L252.576 166.891L255.387 169.293L254.363 171.269C254.822 171.934 255.191 172.657 255.458 173.419L257.67 173.742L257.957 177.428L255.822 178.089C255.676 178.883 255.425 179.655 255.074 180.383L256.411 182.175L254.009 184.98L252.033 183.956C251.367 184.414 250.644 184.782 249.883 185.052L249.56 187.259L245.874 187.546L245.213 185.416C244.419 185.268 243.648 185.016 242.919 184.668L241.127 186.004L238.306 183.603L239.33 181.627C238.871 180.964 238.502 180.242 238.235 179.482L236.028 179.159L235.736 175.473L237.871 174.812H237.881ZM242.873 176.599C242.934 177.383 243.226 178.13 243.712 178.748C244.198 179.365 244.857 179.825 245.604 180.067C246.352 180.31 247.154 180.325 247.91 180.111C248.667 179.897 249.342 179.463 249.851 178.865C250.361 178.266 250.681 177.53 250.771 176.749C250.862 175.969 250.718 175.179 250.359 174.48C250 173.781 249.441 173.204 248.754 172.823C248.066 172.442 247.281 172.274 246.498 172.339C245.453 172.425 244.485 172.922 243.806 173.72C243.127 174.519 242.791 175.554 242.873 176.599Z" fill="#EBEBEB"/>
<path d="M192.6 180.367H167.138C165.642 180.364 164.172 179.967 162.877 179.218C161.581 178.468 160.506 177.392 159.757 176.096C159.008 174.8 158.612 173.33 158.609 171.834C158.606 170.337 158.996 168.866 159.74 167.567L172.478 145.505L185.212 123.443C185.963 122.145 187.042 121.068 188.341 120.318C189.64 119.569 191.113 119.175 192.613 119.175C194.112 119.175 195.586 119.569 196.885 120.318C198.184 121.068 199.263 122.145 200.014 123.443L212.752 145.505L225.491 167.567C226.235 168.866 226.625 170.338 226.622 171.835C226.619 173.332 226.222 174.802 225.473 176.098C224.723 177.394 223.647 178.47 222.351 179.22C221.054 179.969 219.584 180.365 218.087 180.367H192.6Z" fill="#93C840"/>
<path d="M220.023 170.097C220.023 170.097 220.089 170.225 220.217 170.491C220.436 171.024 220.519 171.603 220.46 172.177C220.401 172.75 220.202 173.3 219.879 173.778C219.626 174.155 219.301 174.479 218.922 174.73C218.482 175.01 217.978 175.176 217.458 175.212C213.116 175.258 206.849 175.247 199.097 175.268L171.869 175.299H167.978C167.284 175.291 166.609 175.068 166.047 174.661C165.485 174.254 165.063 173.682 164.839 173.025C164.602 172.369 164.558 171.658 164.711 170.977C164.752 170.808 164.809 170.639 164.865 170.465C164.921 170.291 165.013 170.143 165.09 169.989L165.602 169.093C166.258 167.89 166.923 166.682 167.589 165.458L175.842 150.308L184.147 135.168C185.481 132.721 186.796 130.319 188.089 127.964C188.417 127.38 188.719 126.792 189.067 126.213C189.413 125.622 189.907 125.131 190.501 124.79C191.082 124.457 191.735 124.267 192.405 124.237C193.074 124.206 193.742 124.336 194.351 124.616C194.956 124.889 195.483 125.308 195.887 125.834C196.237 126.365 196.553 126.918 196.834 127.488C197.433 128.584 198.027 129.664 198.606 130.729C199.773 132.859 200.901 134.926 201.99 136.929C204.176 140.928 206.209 144.655 208.062 148.055C211.769 154.86 214.764 160.369 216.838 164.183L219.214 168.571C219.48 169.083 219.685 169.452 219.823 169.718C219.961 169.984 220.028 170.112 220.028 170.112C220.028 170.112 219.946 169.984 219.803 169.728L219.168 168.596L216.746 164.229C214.657 160.425 211.626 154.936 207.899 148.147L201.801 137.032L198.401 130.842C197.817 129.777 197.228 128.696 196.624 127.601C196.342 127.048 196.03 126.511 195.687 125.993C195.31 125.501 194.817 125.109 194.254 124.851C193.68 124.588 193.052 124.465 192.421 124.494C191.791 124.522 191.176 124.701 190.629 125.015C190.074 125.34 189.612 125.802 189.287 126.356C188.949 126.915 188.642 127.514 188.32 128.097L184.377 135.301C181.705 140.196 178.93 145.26 176.093 150.451L167.804 165.591C167.133 166.815 166.473 168.028 165.812 169.226C165.452 169.791 165.168 170.4 164.967 171.039C164.821 171.677 164.862 172.343 165.085 172.959C165.287 173.568 165.676 174.099 166.196 174.477C166.716 174.854 167.341 175.059 167.983 175.063H171.874L199.102 175.089L217.458 175.114C217.961 175.085 218.448 174.93 218.876 174.664C219.249 174.422 219.571 174.108 219.823 173.742C220.217 173.162 220.428 172.477 220.427 171.776C220.421 171.193 220.283 170.619 220.023 170.097Z" fill="#263238"/>
<path d="M188.473 165.376C188.473 163.118 190.276 161.434 192.841 161.434C195.406 161.434 197.167 163.118 197.167 165.376C197.167 167.634 195.406 169.395 192.841 169.395C190.276 169.395 188.473 167.603 188.473 165.376ZM188.514 142.249H197.167L195.713 159.288H189.932L188.514 142.249Z" fill="white"/>
<path d="M193.819 120.893C193.295 120.716 192.752 120.603 192.201 120.555C190.862 120.527 189.555 120.965 188.504 121.794C187.478 122.65 186.652 123.719 186.082 124.928C185.616 125.849 185.396 126.464 185.355 126.438C185.369 126.287 185.405 126.139 185.463 125.998C185.591 125.606 185.741 125.221 185.913 124.846C186.455 123.578 187.292 122.457 188.356 121.579C189.451 120.71 190.831 120.279 192.226 120.371C192.644 120.402 193.054 120.503 193.44 120.668C193.691 120.786 193.829 120.878 193.819 120.893Z" fill="white"/>
<path d="M183.169 130.253C183.274 129.811 183.464 129.394 183.727 129.024C184.101 128.394 184.454 127.913 184.521 127.949C184.412 128.384 184.221 128.794 183.957 129.157C183.768 129.57 183.5 129.942 183.169 130.253Z" fill="white"/>
<g opacity="0.3">
<path d="M205.38 132.741L165.705 157.184L160.554 166.113L208.18 137.59L205.38 132.741Z" fill="white"/>
</g>
<g opacity="0.3">
<path d="M211.626 143.575L159.038 174.592C159.249 175.405 159.639 176.161 160.18 176.804L212.553 145.183L211.626 143.575Z" fill="white"/>
</g>
<path d="M341.587 201.421C339.588 199.218 336.997 197.637 334.123 196.867C331.249 196.097 328.215 196.171 325.382 197.079L320.482 191.703L319.801 190.94L281.028 148.398C282.117 145.873 282.515 143.103 282.18 140.374C281.845 137.644 280.789 135.053 279.121 132.866C277.452 130.68 275.232 128.977 272.688 127.933C270.143 126.888 267.367 126.541 264.644 126.925L262.749 127.677L269.339 132.096L268.985 139.29L263.655 144.128L256.462 143.775L251.762 138.593L249.821 139.356C249.263 143.693 252.171 149.161 255.34 152.668C257.336 154.868 259.923 156.448 262.791 157.219C265.66 157.99 268.69 157.919 271.52 157.015L310.944 200.269L312.152 201.615L315.89 205.711C314.72 208.436 314.359 211.44 314.848 214.365C315.338 217.289 316.657 220.012 318.649 222.208C321.803 225.69 325.991 228.014 330.348 227.896L332.294 227.139L327.589 221.952L327.942 214.784L333.272 209.946L340.44 210.294L343.195 216.238L345.14 215.475C345.74 213.021 345.73 210.456 345.111 208.006C344.491 205.556 343.281 203.295 341.587 201.421Z" fill="#E0E0E0"/>
<g opacity="0.3">
<path d="M341.587 201.421C339.588 199.218 336.997 197.637 334.123 196.867C331.249 196.097 328.215 196.171 325.382 197.079L320.482 191.703L319.801 190.94L281.028 148.398C282.117 145.873 282.515 143.103 282.18 140.374C281.845 137.644 280.789 135.053 279.121 132.866C277.452 130.68 275.232 128.977 272.688 127.933C270.143 126.888 267.367 126.541 264.644 126.925L262.749 127.677L269.339 132.096L268.985 139.29L263.655 144.128L256.462 143.775L251.762 138.593L249.821 139.356C249.263 143.693 252.171 149.161 255.34 152.668C257.336 154.868 259.923 156.448 262.791 157.219C265.66 157.99 268.69 157.919 271.52 157.015L310.944 200.269L312.152 201.615L315.89 205.711C314.72 208.436 314.359 211.44 314.848 214.365C315.338 217.289 316.657 220.012 318.649 222.208C321.803 225.69 325.991 228.014 330.348 227.896L332.294 227.139L327.589 221.952L327.942 214.784L333.272 209.946L340.44 210.294L343.195 216.238L345.14 215.475C345.74 213.021 345.73 210.456 345.111 208.006C344.491 205.556 343.281 203.295 341.587 201.421Z" fill="black"/>
</g>
<path d="M339.641 202.179C337.643 199.976 335.053 198.395 332.18 197.626C329.307 196.857 326.273 196.932 323.442 197.842L318.537 192.461L317.856 191.698L279.082 149.156C280.172 146.631 280.57 143.862 280.235 141.132C279.9 138.402 278.844 135.811 277.176 133.625C275.507 131.439 273.287 129.736 270.742 128.693C268.198 127.649 265.421 127.303 262.698 127.688L267.398 132.869L267.05 140.037L261.71 144.896L254.542 144.548L249.842 139.367C249.192 142.038 249.265 144.834 250.054 147.467C250.843 150.101 252.319 152.477 254.331 154.351C256.342 156.224 258.816 157.529 261.499 158.129C264.182 158.73 266.976 158.605 269.595 157.768L309.019 201.022L310.232 202.368L313.97 206.464C312.884 208.988 312.49 211.755 312.828 214.482C313.165 217.209 314.222 219.796 315.89 221.979C317.557 224.163 319.776 225.863 322.318 226.905C324.86 227.948 327.633 228.295 330.354 227.912L325.648 222.72L325.997 215.552L331.332 210.714L338.5 211.067L343.2 216.249C343.804 213.791 343.795 211.223 343.174 208.77C342.554 206.317 341.341 204.054 339.641 202.179Z" fill="#E0E0E0"/>
<path d="M339.641 202.179C339.641 202.179 339.867 202.424 340.292 202.921C340.897 203.677 341.433 204.486 341.894 205.338C343.674 208.683 344.165 212.565 343.276 216.248V216.351L343.205 216.274L338.5 211.098L338.54 211.123L331.372 210.78H331.424L326.099 215.624V215.568C325.996 217.8 325.879 220.232 325.756 222.761V222.695L330.42 227.84L330.543 227.973L330.364 227.999C327.768 228.376 325.118 228.09 322.662 227.167C320.207 226.244 318.025 224.714 316.32 222.72C314.464 220.565 313.242 217.939 312.787 215.132C312.304 212.19 312.67 209.17 313.842 206.428V206.551L269.456 157.865L269.595 157.901C266.789 158.787 263.793 158.872 260.942 158.147C256.971 157.12 253.563 154.571 251.455 151.052C249.348 147.534 248.709 143.327 249.678 139.341L249.739 139.095L249.908 139.28L254.608 144.461L254.516 144.42L261.71 144.768L261.612 144.804L266.978 139.96L266.932 140.053C267.05 137.626 267.168 135.235 267.285 132.859L267.316 132.951L262.616 127.77L262.457 127.591L262.693 127.56C265.524 127.16 268.411 127.545 271.039 128.674C273.666 129.802 275.933 131.631 277.592 133.96C279.179 136.182 280.152 138.783 280.413 141.502C280.655 144.122 280.241 146.761 279.21 149.182V149.059L323.524 197.781H323.462C325.571 197.107 327.8 196.893 329.999 197.151C332.198 197.41 334.316 198.136 336.211 199.281C337.174 199.869 338.073 200.555 338.894 201.329C339.406 201.877 339.682 202.158 339.682 202.158L338.873 201.349C338.045 200.579 337.143 199.893 336.18 199.301C334.29 198.174 332.181 197.463 329.995 197.214C327.808 196.965 325.593 197.184 323.498 197.857H323.462V197.827L279.067 149.187L279.015 149.13L279.046 149.064C280.061 146.671 280.466 144.064 280.224 141.476C279.968 138.799 279.007 136.237 277.438 134.052C275.805 131.761 273.574 129.962 270.988 128.852C268.402 127.743 265.561 127.365 262.775 127.76L262.852 127.55L267.49 132.782L267.526 132.818V132.874C267.413 135.243 267.297 137.633 267.178 140.042V140.099L267.137 140.135L261.807 144.973L261.766 145.009H261.71L254.542 144.656H254.485L254.45 144.615L249.744 139.433L249.975 139.377C249.332 142.024 249.405 144.794 250.185 147.404C250.966 150.014 252.427 152.369 254.418 154.228C256.409 156.087 258.858 157.384 261.515 157.984C264.172 158.584 266.941 158.467 269.538 157.645H269.615L269.676 157.706C285.794 175.411 300.908 191.985 314.031 206.413L314.082 206.469L314.052 206.541C312.9 209.238 312.536 212.206 313.002 215.102C313.451 217.798 314.607 220.327 316.352 222.43C318.097 224.534 320.368 226.138 322.935 227.077C325.303 227.934 327.845 228.198 330.338 227.845L330.277 228.004L325.582 222.823L325.556 222.792V222.72C325.679 220.196 325.797 217.764 325.909 215.552V215.516V215.491L331.25 210.663H331.28L338.448 211.021C340.169 212.926 341.751 214.672 343.138 216.213H343.046C343.942 212.552 343.47 208.691 341.72 205.353C341.266 204.501 340.74 203.689 340.148 202.926C339.851 202.44 339.641 202.179 339.641 202.179Z" fill="#263238"/>
<path d="M277.315 151.639C277.28 151.775 277.222 151.905 277.147 152.023C276.967 152.356 276.767 152.678 276.547 152.986C275.096 155.051 273.049 156.624 270.68 157.497C270.326 157.63 269.963 157.739 269.595 157.824C269.463 157.868 269.324 157.891 269.185 157.891C269.185 157.845 269.743 157.691 270.613 157.322C272.897 156.372 274.892 154.84 276.399 152.878C276.978 152.126 277.275 151.619 277.315 151.639Z" fill="#263238"/>
</svg>
