<svg width="29" height="29" viewBox="0 0 29 29" fill="none" xmlns="http://www.w3.org/2000/svg">
<circle cx="14.5" cy="14.5" r="14.5" fill="#0E404A"/>
<path d="M20.3333 7H8.66667C7.75 7 7 7.75 7 8.66667V20.3333C7 21.25 7.75 22 8.66667 22H20.3333C21.25 22 22 21.25 22 20.3333V8.66667C22 7.75 21.25 7 20.3333 7ZM20.3333 20.3333H8.66667V8.66667H20.3333V20.3333ZM9.66667 10.9167H13.8333V12.1667H9.66667V10.9167ZM15.3333 17.6667H19.5V18.9167H15.3333V17.6667ZM15.3333 15.5H19.5V16.75H15.3333V15.5ZM11.1667 19.5H12.4167V17.8333H14.0833V16.5833H12.4167V14.9167H11.1667V16.5833H9.5V17.8333H11.1667V19.5ZM16.25 13.5833L17.4167 12.4167L18.5833 13.5833L19.5 12.75L18.3333 11.5833L19.5 10.4167L18.5833 9.5L17.4167 10.6667L16.25 9.5L15.3333 10.4167L16.5 11.5833L15.3333 12.75L16.25 13.5833Z" fill="white"/>
</svg>
