<svg width="24" height="24" viewBox="0 0 24 24" fill="none" xmlns="http://www.w3.org/2000/svg">
<path d="M10.2 12H4.80001V13.8H10.2V12Z" fill="#0E404A"/>
<path d="M12.24 22.2H1.8V1.8H11.7V7.38H17.4V10.2C17.52 10.2 17.58 10.2 17.7 10.2C18.18 10.2 18.72 10.26 19.2 10.38V6.54L12.6 0H1.8C1.32 0 0.9 0.18 0.54 0.54C0.18 0.9 0 1.32 0 1.8V22.2C0 22.68 0.18 23.1 0.54 23.46C0.9 23.82 1.32 24 1.8 24H14.58C13.74 23.58 13.08 23.1 12.6 22.56C12.48 22.44 12.36 22.32 12.24 22.2Z" fill="#0E404A"/>
<path d="M10.2 17.1006H4.80001V18.9006H10.2V17.1006Z" fill="#0E404A"/>
<path d="M23.28 15.1194C22.98 14.3994 22.56 13.7394 21.96 13.1994C21.42 12.6594 20.76 12.2394 20.04 11.8794C19.32 11.5794 18.54 11.3994 17.7 11.3994C16.86 11.3994 16.08 11.5794 15.36 11.8794C14.64 12.1794 13.98 12.5994 13.44 13.1994C12.9 13.7394 12.48 14.3994 12.12 15.1194C11.82 15.8394 11.64 16.6194 11.64 17.4594C11.64 18.2994 11.82 19.0794 12.12 19.7994C12.42 20.5194 12.9 21.1794 13.44 21.7194C13.98 22.2594 14.64 22.6794 15.36 23.0394C16.08 23.3394 16.86 23.5194 17.7 23.5194C18.54 23.5194 19.32 23.3394 20.04 23.0394C20.76 22.7394 21.42 22.2594 21.96 21.7194C22.5 21.1794 22.92 20.5194 23.28 19.7994C23.58 19.0794 23.76 18.2994 23.76 17.4594C23.76 16.6794 23.58 15.8994 23.28 15.1194ZM21.36 21.1194C20.34 22.1394 19.14 22.6194 17.7 22.6194C16.26 22.6194 15.06 22.1394 14.04 21.1194C13.02 20.0994 12.54 18.8994 12.54 17.4594C12.54 16.0194 13.02 14.8194 14.04 13.7994C15.06 12.7794 16.26 12.2994 17.7 12.2994C19.14 12.2994 20.34 12.7794 21.36 13.7994C22.38 14.8194 22.86 16.0194 22.86 17.4594C22.86 18.8994 22.32 20.1594 21.36 21.1194Z" fill="#0E404A"/>
<path d="M16.8 18.8998L15 17.0398L14.28 17.7598L16.8 20.2798L21.06 15.9598L20.4 15.2998L16.8 18.8998Z" fill="#0E404A"/>
</svg>
