<svg width="29" height="29" viewBox="0 0 29 29" fill="none" xmlns="http://www.w3.org/2000/svg">
<circle cx="14.5" cy="14.5" r="14.5" fill="#0E404A"/>
<path d="M14.8 15H11.2V16.2H14.8V15Z" fill="white"/>
<path d="M16.16 21.8H9.2V8.2H15.8V11.92H19.6V13.8C19.68 13.8 19.72 13.8 19.8 13.8C20.12 13.8 20.48 13.84 20.8 13.92V11.36L16.4 7H9.2C8.88 7 8.6 7.12 8.36 7.36C8.12 7.6 8 7.88 8 8.2V21.8C8 22.12 8.12 22.4 8.36 22.64C8.6 22.88 8.88 23 9.2 23H17.72C17.16 22.72 16.72 22.4 16.4 22.04C16.32 21.96 16.24 21.88 16.16 21.8Z" fill="white"/>
<path d="M14.8 18.4004H11.2V19.6004H14.8V18.4004Z" fill="white"/>
<path d="M23.52 17.0796C23.32 16.5996 23.04 16.1596 22.64 15.7996C22.28 15.4396 21.84 15.1596 21.36 14.9196C20.88 14.7196 20.36 14.5996 19.8 14.5996C19.24 14.5996 18.72 14.7196 18.24 14.9196C17.76 15.1196 17.32 15.3996 16.96 15.7996C16.6 16.1596 16.32 16.5996 16.08 17.0796C15.88 17.5596 15.76 18.0796 15.76 18.6396C15.76 19.1996 15.88 19.7196 16.08 20.1996C16.28 20.6796 16.6 21.1196 16.96 21.4796C17.32 21.8396 17.76 22.1196 18.24 22.3596C18.72 22.5596 19.24 22.6796 19.8 22.6796C20.36 22.6796 20.88 22.5596 21.36 22.3596C21.84 22.1596 22.28 21.8396 22.64 21.4796C23 21.1196 23.28 20.6796 23.52 20.1996C23.72 19.7196 23.84 19.1996 23.84 18.6396C23.84 18.1196 23.72 17.5996 23.52 17.0796ZM22.24 21.0796C21.56 21.7596 20.76 22.0796 19.8 22.0796C18.84 22.0796 18.04 21.7596 17.36 21.0796C16.68 20.3996 16.36 19.5996 16.36 18.6396C16.36 17.6796 16.68 16.8796 17.36 16.1996C18.04 15.5196 18.84 15.1996 19.8 15.1996C20.76 15.1996 21.56 15.5196 22.24 16.1996C22.92 16.8796 23.24 17.6796 23.24 18.6396C23.24 19.5996 22.88 20.4396 22.24 21.0796Z" fill="white"/>
<path d="M19.2 19.5992L18 18.3592L17.52 18.8392L19.2 20.5192L22.04 17.6392L21.6 17.1992L19.2 19.5992Z" fill="white"/>
</svg>
