<svg width="29" height="29" viewBox="0 0 29 29" fill="none" xmlns="http://www.w3.org/2000/svg">
<circle cx="14.5" cy="14.5" r="14.5" fill="#0E404A"/>
<path d="M14.7555 15H11.2V16.2444H14.8444V15H14.7555Z" fill="white"/>
<path d="M20.8 11.3556V13.7556H19.5556V11.8889H15.8222V8.15556H9.24444V21.7556H14.8444V23H9.24444C8.88889 23 8.62222 22.9111 8.44444 22.6444C8.08889 22.3778 8 22.1111 8 21.7556V8.15556C8 7.88889 8.08889 7.62222 8.35556 7.35556C8.62222 7.08889 8.88889 7 9.24444 7H16.4444L20.8 11.3556Z" fill="white"/>
<path d="M14.7555 18.377H11.2V19.6214H14.8444V18.377H14.7555Z" fill="white"/>
<path d="M17.7778 20.3333V21.2222H18.6667V20.3333H17.7778ZM19.5556 21.2222H22.2222V20.3333H19.5556V21.2222ZM19.5556 19.4444H22.2222V18.5556H19.5556V19.4444ZM19.5556 16.7778V17.6667H22.2222V16.7778H19.5556ZM17.7778 21.2222H18.6667V20.3333H17.7778V21.2222ZM17.7778 19.4444H18.6667V18.5556H17.7778V19.4444ZM17.7778 17.6667H18.6667V16.7778H17.7778V17.6667ZM23.1111 15H16.8889C16.4444 15 16 15.4444 16 15.8889V22.1111C16 22.5556 16.4444 23 16.8889 23H23.1111C23.5556 23 24 22.5556 24 22.1111V15.8889C24 15.4444 23.5556 15 23.1111 15ZM23.1111 22.1111H16.8889V15.8889H23.1111V22.1111ZM22.2222 20.3333H19.5556V21.2222H22.2222V20.3333ZM22.2222 18.5556H19.5556V19.4444H22.2222V18.5556ZM22.2222 16.7778H19.5556V17.6667H22.2222V16.7778ZM18.6667 20.3333H17.7778V21.2222H18.6667V20.3333ZM18.6667 18.5556H17.7778V19.4444H18.6667V18.5556ZM18.6667 16.7778H17.7778V17.6667H18.6667V16.7778ZM17.7778 18.5556V19.4444H18.6667V18.5556H17.7778ZM19.5556 16.7778V17.6667H22.2222V16.7778H19.5556ZM19.5556 18.5556V19.4444H22.2222V18.5556H19.5556ZM17.7778 16.7778V17.6667H18.6667V16.7778H17.7778ZM19.5556 20.3333V21.2222H22.2222V20.3333H19.5556Z" fill="white"/>
</svg>
