<svg width="164" height="9" viewBox="0 0 164 9" fill="none" xmlns="http://www.w3.org/2000/svg">
<path d="M0.850162 8.46845V1.06128H3.63615C4.2071 1.06128 4.68636 1.16721 5.07498 1.37909C5.4636 1.59096 5.75742 1.8828 5.95641 2.25253C6.15646 2.62227 6.25543 3.04289 6.25543 3.51337C6.25543 3.98385 6.15541 4.41071 5.95433 4.77941C5.75325 5.1481 5.45735 5.43787 5.06561 5.64974C4.67386 5.86057 4.19147 5.9665 3.61844 5.9665H1.77119V4.86353H3.43611C3.76951 4.86353 4.04352 4.80537 4.25607 4.69009C4.46861 4.57481 4.62698 4.41486 4.72908 4.21234C4.83223 4.00981 4.88328 3.77717 4.88328 3.51441C4.88328 3.25165 4.83223 3.02005 4.72908 2.8196C4.62593 2.61915 4.46757 2.46336 4.25398 2.3512C4.0404 2.23903 3.7643 2.18295 3.42881 2.18295H2.19523V8.46845H0.849121H0.850162Z" fill="#0E404A"/>
<path d="M18.5599 4.76478C18.5599 5.56345 18.4109 6.2458 18.1119 6.81391C17.8129 7.38201 17.4066 7.81614 16.8929 8.11733C16.3793 8.41852 15.7969 8.56911 15.1457 8.56911C14.4945 8.56911 13.9131 8.41748 13.3985 8.11525C12.8848 7.81302 12.4785 7.37785 12.1795 6.80975C11.8804 6.24164 11.7314 5.56033 11.7314 4.76478C11.7314 3.96922 11.8804 3.28376 12.1795 2.71566C12.4785 2.14755 12.8848 1.71343 13.3985 1.41224C13.9121 1.11105 14.4945 0.960449 15.1457 0.960449C15.7969 0.960449 16.3782 1.11105 16.8929 1.41224C17.4066 1.71343 17.8129 2.14859 18.1119 2.71566C18.4109 3.28376 18.5599 3.96611 18.5599 4.76478ZM17.2065 4.76478C17.2065 4.20291 17.119 3.72827 16.944 3.34192C16.7689 2.95453 16.5262 2.66165 16.2167 2.46328C15.9073 2.26387 15.5499 2.16521 15.1467 2.16521C14.7435 2.16521 14.3862 2.26491 14.0767 2.46328C13.7673 2.66269 13.5245 2.95557 13.3495 3.34192C13.1744 3.72931 13.0869 4.20291 13.0869 4.76478C13.0869 5.32665 13.1744 5.80129 13.3495 6.18764C13.5245 6.57503 13.7673 6.86791 14.0767 7.06628C14.3862 7.26569 14.7435 7.36436 15.1467 7.36436C15.5499 7.36436 15.9073 7.26465 16.2167 7.06628C16.5262 6.86687 16.7689 6.57399 16.944 6.18764C17.119 5.80025 17.2065 5.32665 17.2065 4.76478Z" fill="#0E404A"/>
<path d="M25.7116 8.46845L23.6143 1.06128H25.0614L26.4002 6.50449H26.469L27.8985 1.06128H29.2154L30.649 6.50865H30.7147L32.0535 1.06128H33.5017L31.4044 8.46845H30.076L28.5882 3.27138H28.5298L27.0389 8.46845H25.7116Z" fill="#0E404A"/>
<path d="M38.9287 8.46845V1.06128H43.762V2.18607H40.2748V4.19676H43.5109V5.32154H40.2748V7.34367H43.7901V8.46845H38.9287Z" fill="#0E404A"/>
<path d="M49.632 8.46845V1.06128H52.4191C52.99 1.06128 53.4693 1.15994 53.8579 1.35831C54.2465 1.55564 54.5403 1.83294 54.7393 2.18814C54.9394 2.54333 55.0383 2.95773 55.0383 3.43029C55.0383 3.90284 54.9373 4.31724 54.7351 4.66516C54.533 5.01309 54.2361 5.28208 53.8443 5.47214C53.4526 5.66116 52.9712 5.75568 52.4003 5.75568H50.4155V4.64127H52.219C52.5524 4.64127 52.8264 4.59454 53.039 4.50211C53.2515 4.40967 53.4099 4.27362 53.512 4.09394C53.6151 3.91427 53.6662 3.69305 53.6662 3.43029C53.6662 3.16753 53.6141 2.94319 53.5099 2.75625C53.4057 2.5693 53.2473 2.42701 53.0348 2.32939C52.8223 2.23176 52.5472 2.18295 52.2107 2.18295H50.9771V8.46845H49.631H49.632ZM53.4713 5.11175L55.3113 8.46845H53.8089L52.0023 5.11175H53.4713Z" fill="#0E404A"/>
<path d="M60.7749 8.46845V1.06128H65.6082V2.18607H62.121V4.19676H65.3571V5.32154H62.121V7.34367H65.6363V8.46845H60.7749Z" fill="#0E404A"/>
<path d="M73.9964 8.46845H71.4781V1.06128H74.0474C74.7851 1.06128 75.4196 1.20875 75.9499 1.50475C76.4813 1.79971 76.8886 2.22449 77.1741 2.77598C77.4596 3.32851 77.6023 3.98904 77.6023 4.75759C77.6023 5.52614 77.4596 6.19188 77.172 6.74648C76.8855 7.30108 76.4729 7.7269 75.9353 8.0229C75.3967 8.31993 74.7507 8.46741 73.9964 8.46741V8.46845ZM72.8243 7.30732H73.9307C74.4485 7.30732 74.8799 7.2128 75.2258 7.02378C75.5717 6.83476 75.8322 6.55123 76.0062 6.17422C76.1801 5.79722 76.2677 5.32466 76.2677 4.75863C76.2677 4.1926 76.1812 3.72109 76.0062 3.34616C75.8322 2.97123 75.5748 2.68978 75.2352 2.50387C74.8955 2.31693 74.4736 2.22345 73.9703 2.22345H72.8243V7.30835V7.30732Z" fill="#0E404A"/>
<path d="M97.4386 8.46845V1.06128H100.283C100.819 1.06128 101.266 1.1454 101.624 1.31261C101.98 1.47983 102.248 1.70831 102.425 1.99808C102.603 2.28784 102.692 2.615 102.692 2.98162C102.692 3.28281 102.633 3.54038 102.518 3.75328C102.402 3.96619 102.246 4.13964 102.05 4.27258C101.854 4.40551 101.635 4.50003 101.394 4.55819V4.63089C101.657 4.64543 101.91 4.7254 102.154 4.87184C102.397 5.01724 102.596 5.22288 102.751 5.48876C102.906 5.7536 102.983 6.07452 102.983 6.45049C102.983 6.82646 102.891 7.17853 102.704 7.48284C102.518 7.78818 102.237 8.02809 101.862 8.20465C101.487 8.38121 101.015 8.46845 100.448 8.46845H97.4396H97.4386ZM98.7847 4.2113H100.116C100.349 4.2113 100.558 4.16872 100.744 4.08251C100.931 3.99735 101.078 3.8748 101.185 3.71694C101.293 3.55907 101.347 3.37108 101.347 3.15402C101.347 2.86737 101.246 2.63058 101.043 2.44571C100.841 2.25981 100.542 2.16737 100.145 2.16737H98.7847V4.21026V4.2113ZM98.7847 7.34678H100.232C100.721 7.34678 101.073 7.25331 101.289 7.06637C101.506 6.87942 101.614 6.63951 101.614 6.34455C101.614 6.12541 101.56 5.92704 101.451 5.74944C101.343 5.57185 101.187 5.43267 100.986 5.32985C100.785 5.22703 100.547 5.17614 100.267 5.17614H98.7837V7.34575L98.7847 7.34678Z" fill="#0E404A"/>
<path d="M108.142 1.06128H109.662L111.48 4.33801H111.553L113.371 1.06128H114.891L112.189 5.70478V8.46845H110.846V5.70478L108.143 1.06128H108.142Z" fill="#0E404A"/>
<path d="M134.407 8.46845V1.06128H135.753V4.19676H139.196V1.06128H140.546V8.46845H139.196V5.32154H135.753V8.46845H134.407Z" fill="#93C840"/>
<path d="M146.503 8.46845V1.06128H149.347C149.884 1.06128 150.331 1.1454 150.688 1.31261C151.044 1.47983 151.312 1.70831 151.489 1.99808C151.667 2.28784 151.756 2.615 151.756 2.98162C151.756 3.28281 151.698 3.54038 151.582 3.75328C151.466 3.96619 151.31 4.13964 151.114 4.27258C150.918 4.40551 150.7 4.50003 150.458 4.55819V4.63089C150.721 4.64543 150.975 4.7254 151.218 4.87184C151.461 5.01724 151.66 5.22288 151.815 5.48876C151.971 5.7536 152.048 6.07452 152.048 6.45049C152.048 6.82646 151.955 7.17853 151.768 7.48284C151.582 7.78818 151.302 8.02809 150.927 8.20465C150.552 8.38121 150.08 8.46845 149.512 8.46845H146.504H146.503ZM147.849 4.2113H149.18C149.413 4.2113 149.622 4.16872 149.809 4.08251C149.995 3.99735 150.142 3.8748 150.249 3.71694C150.357 3.55907 150.411 3.37108 150.411 3.15402C150.411 2.86737 150.31 2.63058 150.108 2.44571C149.906 2.25981 149.607 2.16737 149.21 2.16737H147.849V4.21026V4.2113ZM147.849 7.34678H149.296C149.785 7.34678 150.137 7.25331 150.354 7.06637C150.57 6.87942 150.679 6.63951 150.679 6.34455C150.679 6.12541 150.624 5.92704 150.515 5.74944C150.407 5.57185 150.251 5.43267 150.05 5.32985C149.849 5.22703 149.611 5.17614 149.332 5.17614H147.848V7.34575L147.849 7.34678Z" fill="#93C840"/>
<path d="M161.753 3.09797C161.718 2.78224 161.577 2.5361 161.327 2.36058C161.077 2.18506 160.752 2.09678 160.353 2.09678C160.072 2.09678 159.832 2.13936 159.63 2.22349C159.429 2.30761 159.276 2.4229 159.17 2.56726C159.064 2.71162 159.01 2.87675 159.006 3.06266C159.006 3.21741 159.042 3.35035 159.114 3.4646C159.185 3.5778 159.283 3.67335 159.405 3.75228C159.528 3.83017 159.665 3.89664 159.815 3.94961C159.965 4.00258 160.116 4.04724 160.268 4.08359L160.965 4.25703C161.245 4.32246 161.516 4.4097 161.776 4.52083C162.035 4.63196 162.27 4.77113 162.476 4.94042C162.682 5.10971 162.847 5.31327 162.968 5.55215C163.088 5.79102 163.149 6.0704 163.149 6.39132C163.149 6.82545 163.037 7.2066 162.816 7.53584C162.593 7.86507 162.272 8.1216 161.852 8.30647C161.432 8.49134 160.925 8.58273 160.33 8.58273C159.735 8.58273 159.25 8.49341 158.826 8.31477C158.402 8.13614 158.07 7.8765 157.832 7.53376C157.594 7.19103 157.465 6.77455 157.446 6.28227H158.77C158.79 6.54087 158.869 6.75482 159.01 6.92619C159.15 7.09755 159.334 7.2253 159.56 7.30943C159.786 7.39355 160.039 7.43614 160.32 7.43614C160.602 7.43614 160.87 7.39251 161.091 7.30423C161.312 7.21595 161.486 7.0934 161.612 6.93554C161.738 6.77767 161.802 6.5928 161.805 6.37989C161.803 6.18672 161.746 6.02781 161.634 5.90111C161.523 5.7744 161.367 5.66847 161.167 5.5833C160.967 5.49814 160.735 5.42129 160.469 5.35378L159.624 5.13671C159.013 4.97989 158.529 4.74205 158.175 4.42217C157.821 4.10228 157.644 3.67751 157.644 3.14679C157.644 2.71058 157.762 2.32838 158.001 2.00019C158.24 1.672 158.564 1.41755 158.975 1.23579C159.387 1.05404 159.852 0.962646 160.372 0.962646C160.892 0.962646 161.362 1.05404 161.76 1.23579C162.158 1.41755 162.471 1.66992 162.698 1.99188C162.925 2.31384 163.043 2.68358 163.05 3.10005H161.755L161.753 3.09797Z" fill="#93C840"/>
</svg>
