<svg width="24" height="24" viewBox="0 0 24 24" fill="none" xmlns="http://www.w3.org/2000/svg">
<path d="M11.988 6.00054e-06C9.61514 0.00237886 7.29624 0.708183 5.32443 2.0282C3.35262 3.34822 1.81642 5.22319 0.91001 7.41611C0.00359888 9.60903 -0.23233 12.0215 0.232047 14.3484C0.696424 16.6754 1.84026 18.8125 3.51897 20.4895C5.19767 22.1665 7.33589 23.3082 9.66333 23.7703C11.9908 24.2323 14.403 23.994 16.595 23.0854C18.787 22.1768 20.6604 20.6387 21.9785 18.6656C23.2965 16.6925 24 14.3729 24 12C24 10.4231 23.6892 8.86172 23.0854 7.40503C22.4816 5.94834 21.5966 4.62494 20.481 3.51048C19.3655 2.39602 18.0412 1.51236 16.5839 0.910005C15.1266 0.307655 13.5649 -0.00157087 11.988 6.00054e-06ZM12 21.6C10.1013 21.6 8.24524 21.037 6.66653 19.9821C5.08782 18.9272 3.85736 17.4279 3.13076 15.6738C2.40416 13.9196 2.21405 11.9894 2.58447 10.1271C2.95488 8.26492 3.86919 6.55436 5.21178 5.21178C6.55436 3.8692 8.26492 2.95489 10.1271 2.58447C11.9894 2.21405 13.9196 2.40416 15.6738 3.13076C17.4279 3.85736 18.9272 5.08782 19.9821 6.66653C21.037 8.24524 21.6 10.1013 21.6 12C21.6 14.5461 20.5886 16.9879 18.7882 18.7882C16.9879 20.5886 14.5461 21.6 12 21.6ZM12.6 6H10.8V13.2L17.1 16.98L18 15.504L12.6 12.3V6Z" fill="white"/>
</svg>
