<svg width="29" height="29" viewBox="0 0 29 29" fill="none" xmlns="http://www.w3.org/2000/svg">
<circle cx="14.5" cy="14.5" r="14.5" fill="#0E404A"/>
<path d="M19.0741 8L10.4074 16.6667L12.3333 18.5926L21 9.92593L19.0741 8ZM19.0741 8L10.4074 16.6667L12.3333 18.5926L21 9.92593L19.0741 8ZM19.0741 8L8 19.0741L9.92593 21L21 9.92593L19.0741 8Z" fill="white"/>
<path d="M8 9.92593L16.6667 18.5926L18.5926 16.6667L9.92593 8L8 9.92593ZM8 9.92593L16.6667 18.5926L18.5926 16.6667L9.92593 8L8 9.92593ZM8 9.92593L19.0741 21L21 19.0741L9.82963 8L8 9.92593Z" fill="white"/>
</svg>
