<svg width="24" height="24" viewBox="0 0 24 24" fill="none" xmlns="http://www.w3.org/2000/svg">
<path d="M12 0H11.3L15.1 3.8L16.4 2.5C19.6 4.1 22 7.2 22.4 11H23.9C23.4 4.8 18.3 0 12 0Z" fill="#0E404A"/>
<path d="M7.5 21.5C4.3 19.9 1.9 16.8 1.5 13H0C0.5 19.2 5.7 24 12 24H12.7L8.9 20.2L7.6 21.5H7.5Z" fill="#0E404A"/>
<path d="M5.30005 5.69922H8.10005L11.9 14.8992H12L15.8 5.69922H18.6V18.3992H16.4V9.69922H16.3L12.8 18.3992H11.2L7.70005 9.69922H7.60005V18.3992H5.40005V5.69922H5.30005Z" fill="#0E404A"/>
</svg>
