<svg width="29" height="29" viewBox="0 0 29 29" fill="none" xmlns="http://www.w3.org/2000/svg">
<circle cx="14.5" cy="14.5" r="14.5" fill="#0E404A"/>
<path d="M13.9017 21.0078C12.2387 20.8726 10.8393 20.1898 9.70359 18.9594C8.56786 17.7291 8 16.2689 8 14.5788C8 13.5377 8.23999 12.5575 8.71997 11.6381C9.19995 10.7187 9.87259 9.96828 10.7379 9.3869L11.61 10.259C10.8528 10.7051 10.2647 11.317 9.84555 12.0944C9.42642 12.8718 9.21685 13.6999 9.21685 14.5788C9.21685 15.9308 9.66303 17.1004 10.5554 18.0874C11.4477 19.0744 12.5632 19.6422 13.9017 19.791V21.0078ZM15.1186 21.0078V19.791C16.4706 19.6287 17.5861 19.0575 18.4649 18.0772C19.3437 17.097 19.7832 15.9308 19.7832 14.5788C19.7832 13.105 19.2728 11.8578 18.252 10.837C17.2311 9.81617 15.9839 9.30577 14.5101 9.30577H14.1045L15.3214 10.5226L14.4493 11.3947L11.752 8.69735L14.4493 6L15.3214 6.87207L14.1045 8.08892H14.5101C16.3219 8.08892 17.8565 8.72101 19.1139 9.98518C20.3713 11.2493 21 12.7806 21 14.5788C21 16.2689 20.4355 17.7291 19.3066 18.9594C18.1776 20.1898 16.7816 20.8726 15.1186 21.0078Z" fill="white"/>
</svg>
