<svg width="29" height="29" viewBox="0 0 29 29" fill="none" xmlns="http://www.w3.org/2000/svg">
<circle cx="14.5" cy="14.5" r="14.5" fill="#0E404A"/>
<path d="M13.1202 12.9211C13.5006 12.9211 13.8257 12.7856 14.0954 12.5147C14.3651 12.2438 14.5 11.9181 14.5 11.5377C14.5 11.1573 14.3645 10.8322 14.0936 10.5625C13.8227 10.2928 13.4971 10.1579 13.1167 10.1579C12.7363 10.1579 12.4112 10.2933 12.1414 10.5643C11.8717 10.8352 11.7368 11.1608 11.7368 11.5412C11.7368 11.9216 11.8723 12.2467 12.1432 12.5164C12.4141 12.7862 12.7398 12.9211 13.1202 12.9211ZM13.1283 16.0789C13.6349 16.0789 14.1264 15.9745 14.6028 15.7656C15.0792 15.5567 15.4923 15.2598 15.8421 14.875C15.4211 14.6118 14.9803 14.4178 14.5197 14.2928C14.0592 14.1678 13.5921 14.1053 13.1184 14.1053C12.6447 14.1053 12.1776 14.1678 11.7171 14.2928C11.2566 14.4178 10.8158 14.6118 10.3947 14.875C10.7632 15.2566 11.1842 15.5526 11.6579 15.7632C12.1316 15.9737 12.6217 16.0789 13.1283 16.0789ZM21.1711 22L17.0066 17.8355C16.4803 18.2566 15.8783 18.5954 15.2007 18.852C14.523 19.1086 13.8294 19.2368 13.1197 19.2368C11.4215 19.2368 9.97697 18.6414 8.78618 17.4507C7.59539 16.2599 7 14.8158 7 13.1184C7 11.4211 7.59539 9.97697 8.78618 8.78618C9.97697 7.59539 11.4211 7 13.1184 7C14.8158 7 16.2599 7.59539 17.4507 8.78618C18.6414 9.97697 19.2368 11.4215 19.2368 13.1197C19.2368 13.8294 19.1086 14.523 18.852 15.2007C18.5954 15.8783 18.2566 16.4803 17.8355 17.0066L22 21.1711L21.1711 22ZM13.1283 18.0526C14.4901 18.0526 15.6513 17.5691 16.6118 16.602C17.5724 15.6349 18.0526 14.4704 18.0526 13.1086C18.0526 11.7467 17.5729 10.5855 16.6135 9.625C15.6541 8.66447 14.489 8.18421 13.1184 8.18421C11.7632 8.18421 10.602 8.66393 9.63487 9.62336C8.66776 10.5828 8.18421 11.7478 8.18421 13.1184C8.18421 14.4737 8.66776 15.6349 9.63487 16.602C10.602 17.5691 11.7664 18.0526 13.1283 18.0526Z" fill="white"/>
</svg>
