<svg width="189" height="56" viewBox="0 0 189 56" fill="none" xmlns="http://www.w3.org/2000/svg">
<path d="M13.2871 28.2671C20.715 28.2671 24.6904 33.8111 24.6904 40.6649C24.6904 41.3444 24.5338 42.7575 24.5338 42.7575H5.23093C5.54508 48.4069 9.62484 51.5975 14.3329 51.5975C19.0409 51.5975 22.0749 48.5113 22.0749 48.5113L24.2719 52.1204C24.2719 52.1204 20.3487 55.9914 14.0709 55.9914C5.70164 55.9914 0 49.9756 0 42.1282C0 33.7067 5.75382 28.2661 13.2871 28.2661V28.2671ZM19.4594 39.0431C19.3029 34.6492 16.5298 32.2946 13.2339 32.2946C9.36288 32.2946 6.22453 34.6481 5.43968 39.0431H19.4584H19.4594Z" fill="#93C840"/>
<path d="M42.1013 28.2671C45.2928 28.2671 51.6217 29.5748 51.6217 34.0731V36.7929H47.0181V35.3286C47.0181 33.4448 44.0363 32.6088 42.1013 32.6088C36.9225 32.6088 33.0515 36.4798 33.0515 42.076C33.0515 48.0918 37.4454 51.4921 42.3632 51.4921C47.281 51.4921 50.576 47.8298 50.576 47.8298L52.7729 51.4399C52.7729 51.4399 49.0063 55.9914 41.9969 55.9914C33.6798 55.9914 27.8727 50.08 27.8727 42.1282C27.8727 34.1764 33.5744 28.2661 42.1013 28.2661V28.2671Z" fill="#93C840"/>
<path d="M68.3586 28.2668C76.2572 28.2668 82.6393 34.0728 82.6393 42.0767C82.6393 50.0807 76.2572 55.9921 68.3586 55.9921C60.46 55.9921 54.1301 50.1339 54.1301 42.0767C54.1301 34.0196 60.46 28.2668 68.3586 28.2668ZM68.3586 51.5972C73.3808 51.5972 77.4605 47.6218 77.4605 42.0767C77.4605 36.5317 73.3797 32.6607 68.3586 32.6607C63.3374 32.6607 59.3088 36.5839 59.3088 42.0767C59.3088 47.5696 63.3896 51.5972 68.3586 51.5972Z" fill="#93C840"/>
<path d="M87.5165 32.9739H84.064V28.8931H87.6208V19.4413L92.5898 24.531V28.8942H98.9197V32.9749H92.5898V45.1108C92.5898 50.394 96.2521 51.0744 98.1871 51.0744C98.9197 51.0744 99.3904 50.969 99.3904 50.969V55.4673C99.3904 55.4673 98.7099 55.5727 97.612 55.5727C94.2639 55.5727 87.5154 54.5259 87.5154 45.6859V32.9749L87.5165 32.9739Z" fill="#0E404A"/>
<path d="M106.351 34.387C106.351 33.6012 105.933 33.2359 105.2 33.2359H103.055V28.8942H108.025C110.379 28.8942 111.374 29.8878 111.374 32.2423V49.8711C111.374 50.6559 111.791 51.0223 112.525 51.0223H114.67V55.364H109.7C107.346 55.364 106.351 54.3704 106.351 52.0158V34.387Z" fill="#0E404A"/>
<path d="M119.232 34.3869C119.232 33.6011 118.814 33.2358 118.081 33.2358H115.936V28.894H120.801C123.103 28.894 124.149 29.8876 124.149 31.8237V32.8172C124.149 33.6543 124.097 34.3347 124.097 34.3347H124.201C125.456 31.2476 129.118 28.2668 133.251 28.2668C137.749 28.2668 140.312 30.3061 141.202 34.2826H141.307C142.772 31.091 146.433 28.2668 150.723 28.2668C156.685 28.2668 159.459 31.6661 159.459 38.4145V49.871C159.459 50.6558 159.877 51.0221 160.61 51.0221H162.754V55.3639H157.733C155.38 55.3639 154.385 54.3703 154.385 52.0157V39.5135C154.385 35.799 153.653 32.8705 149.729 32.8705C146.067 32.8705 143.242 36.062 142.3 39.6711C142.04 40.769 141.882 41.9202 141.882 43.2801V55.3639H136.808V39.5135C136.808 36.061 136.285 32.8705 132.256 32.8705C128.227 32.8705 125.665 36.1142 124.672 39.8808C124.41 40.9266 124.305 42.0778 124.305 43.2801V55.3639H119.231V34.388L119.232 34.3869Z" fill="#0E404A"/>
<path d="M177.287 28.2671C184.715 28.2671 188.69 33.8111 188.69 40.6649C188.69 41.3444 188.533 42.7575 188.533 42.7575H169.23C169.544 48.4069 173.624 51.5975 178.332 51.5975C183.041 51.5975 186.074 48.5113 186.074 48.5113L188.271 52.1204C188.271 52.1204 184.348 55.9914 178.07 55.9914C169.7 55.9914 163.999 49.9756 163.999 42.1282C163.999 33.7067 169.753 28.2661 177.286 28.2661L177.287 28.2671ZM183.46 39.0431C183.302 34.6492 180.53 32.2946 177.234 32.2946C173.363 32.2946 170.225 34.6481 169.44 39.0431H183.46Z" fill="#0E404A"/>
<path d="M113.871 23.2104L93.3331 0.976593L91.2879 2.86587L111.826 25.0996L113.871 23.2104Z" fill="#0E404A"/>
<path d="M136.236 0.000169817L98.9534 19.2596L101.033 23.2852L138.315 4.02579L136.236 0.000169817Z" fill="#93C840"/>
</svg>
