<svg width="24" height="24" viewBox="0 0 24 24" fill="none" xmlns="http://www.w3.org/2000/svg">
<path d="M13.3112 0H10.6447V13.3325H13.3112V0ZM19.7507 2.89315L17.8575 4.78636C18.9374 5.65255 19.8084 6.75064 20.4062 7.99923C21.0039 9.24783 21.3131 10.6149 21.3106 11.9992C21.3125 13.5748 20.9154 15.1251 20.1564 16.5058C19.3975 17.8864 18.3013 19.0525 16.9701 19.8952C15.639 20.738 14.1161 21.2301 12.5435 21.3255C10.9709 21.421 9.39969 21.1168 7.97635 20.4413C6.553 19.7658 5.32384 18.7409 4.40341 17.4622C3.48298 16.1835 2.90125 14.6926 2.71243 13.1284C2.52362 11.5643 2.73386 9.97777 3.32356 8.51678C3.91326 7.05578 4.86324 5.76786 6.08495 4.77303L4.20506 2.89315C2.67476 4.19945 1.49783 5.86988 0.782737 7.75055C0.0676405 9.63121 -0.162628 11.6616 0.11315 13.6546C0.388928 15.6477 1.16188 17.5392 2.36079 19.1551C3.5597 20.7709 5.14599 22.059 6.97352 22.9006C8.80104 23.7423 10.811 24.1105 12.8182 23.9713C14.8254 23.832 16.7653 23.1898 18.4591 22.1039C20.1529 21.018 21.5462 19.5232 22.5105 17.7573C23.4748 15.9914 23.9792 14.0113 23.9771 11.9992C23.9781 10.2652 23.6004 8.55193 22.8704 6.97907C22.1404 5.40621 21.0757 4.01175 19.7507 2.89315Z" fill="white"/>
</svg>
