<svg width="428" height="286" viewBox="0 0 428 286" fill="none" xmlns="http://www.w3.org/2000/svg">
<path d="M160.129 116.644L161.271 118.984C161.328 119.098 161.442 119.212 161.613 119.212L164.238 119.612C164.466 119.669 164.637 119.897 164.58 120.125C164.58 120.239 164.523 120.296 164.466 120.354L162.583 122.18C162.469 122.294 162.412 122.408 162.469 122.522L162.925 125.147C162.983 125.375 162.811 125.604 162.583 125.661C162.469 125.661 162.412 125.661 162.298 125.604L159.958 124.405C159.844 124.348 159.673 124.348 159.559 124.405L157.219 125.604C156.991 125.718 156.762 125.604 156.648 125.432C156.591 125.375 156.591 125.261 156.591 125.147L157.048 122.522C157.048 122.408 157.048 122.237 156.933 122.18L155.05 120.354C154.879 120.182 154.879 119.954 155.05 119.783C155.107 119.726 155.221 119.669 155.279 119.669L157.904 119.269C158.018 119.269 158.132 119.155 158.189 119.041L159.33 116.701C159.387 116.473 159.673 116.359 159.901 116.473C160.015 116.473 160.129 116.587 160.129 116.644Z" fill="#E0E0E0"/>
<path d="M395.415 49.9333L396.556 52.2731C396.613 52.3872 396.727 52.5013 396.899 52.5013L399.524 52.9008C399.752 52.9579 399.923 53.1291 399.866 53.3573C399.866 53.4715 399.809 53.5285 399.752 53.5856L397.869 55.4117C397.755 55.5259 397.698 55.64 397.755 55.8112L398.211 58.3792C398.268 58.6075 398.097 58.8357 397.869 58.8928C397.755 58.8928 397.698 58.8928 397.583 58.8357L395.301 57.6373C395.187 57.5803 395.015 57.5803 394.901 57.6373L392.562 58.8357C392.333 58.9499 392.105 58.8928 391.991 58.6645C391.934 58.6075 391.934 58.4933 391.934 58.3792L392.39 55.8112C392.39 55.6971 392.39 55.5259 392.276 55.4117L390.393 53.5856C390.222 53.4144 390.222 53.1291 390.393 53.0149C390.45 52.9579 390.564 52.9008 390.621 52.9008L393.189 52.5013C393.303 52.5013 393.475 52.3872 393.532 52.2731L394.673 49.9333C394.787 49.7051 395.015 49.648 395.244 49.7621C395.301 49.7621 395.358 49.8192 395.415 49.9333Z" fill="#E0E0E0"/>
<path d="M162.868 26.1937L162.583 27.6774C162.583 27.7345 162.583 27.8486 162.64 27.9057L163.667 28.9899C163.781 29.1041 163.781 29.2182 163.667 29.3323C163.61 29.3894 163.553 29.3894 163.496 29.3894L162.012 29.5606C161.955 29.5606 161.841 29.6177 161.841 29.6747L161.156 30.9873C161.099 31.1014 160.985 31.1585 160.814 31.1014C160.757 31.1014 160.7 31.0443 160.7 30.9873L160.072 29.6177C160.015 29.5606 159.958 29.5035 159.901 29.5035L158.417 29.2182C158.303 29.2182 158.189 29.047 158.246 28.9329C158.246 28.8758 158.303 28.8187 158.303 28.8187L159.387 27.7915C159.444 27.7345 159.501 27.6774 159.444 27.5633L159.216 26.0795C159.216 25.9654 159.273 25.8513 159.444 25.7942C159.501 25.7942 159.558 25.7942 159.615 25.7942L160.928 26.5361C160.985 26.5931 161.099 26.5931 161.156 26.5361L162.526 25.8513C162.64 25.7942 162.811 25.8513 162.868 25.9654C162.868 26.0795 162.868 26.1366 162.868 26.1937Z" fill="#E0E0E0"/>
<path d="M45.425 108.484L44.9685 110.652C44.9685 110.767 44.9685 110.881 45.0826 110.995L46.6234 112.593C46.7376 112.764 46.7376 112.992 46.6234 113.106C46.5664 113.163 46.5093 113.22 46.3952 113.22L44.1696 113.506C44.0555 113.506 43.9413 113.62 43.8843 113.677L42.857 115.674C42.8 115.845 42.5717 115.903 42.4005 115.845C42.3435 115.788 42.2864 115.731 42.2293 115.674L41.3163 113.62C41.2592 113.506 41.1451 113.449 41.0309 113.392L38.8053 113.049C38.6341 112.992 38.4629 112.821 38.52 112.65C38.52 112.593 38.577 112.479 38.6341 112.479L40.289 110.995C40.3461 110.938 40.4032 110.824 40.4032 110.652L40.0608 108.427C40.0608 108.256 40.1749 108.027 40.3461 108.027C40.4032 108.027 40.5173 108.027 40.5744 108.084L42.5146 109.169C42.6288 109.226 42.7429 109.226 42.857 109.169L44.8544 108.199C45.0256 108.084 45.2539 108.199 45.3109 108.37C45.4251 108.313 45.4821 108.427 45.425 108.484Z" fill="#E0E0E0"/>
<path d="M409.682 152.996C409.625 153.053 408.997 152.596 408.141 152.311C407.285 152.026 406.486 151.969 406.486 151.855C407.685 151.683 408.883 152.083 409.682 152.996Z" fill="#E0E0E0"/>
<path d="M404.602 149.914C403.575 149.857 402.548 149.572 401.635 149.172C402.148 149.172 402.662 149.229 403.176 149.401C403.689 149.458 404.146 149.629 404.602 149.914Z" fill="#E0E0E0"/>
<path d="M25.5659 271.01C25.5659 270.953 108.427 270.838 210.576 270.838C312.725 270.838 395.586 270.895 395.586 271.01C395.586 271.124 312.782 271.181 210.576 271.181C108.37 271.181 25.5659 271.067 25.5659 271.01Z" fill="#263238"/>
<path d="M66.0833 29.047L67.2246 31.3867C67.2817 31.5009 67.3958 31.615 67.567 31.615L70.1921 32.0145C70.4204 32.0715 70.5916 32.2998 70.5345 32.5281C70.5345 32.6422 70.4774 32.6993 70.4204 32.7563L68.5372 34.5825C68.423 34.6966 68.366 34.8107 68.423 34.9819L68.8796 37.5499C68.9366 37.7782 68.7654 38.0065 68.5372 38.0635C68.423 38.0635 68.366 38.0635 68.2518 38.0065L65.9121 36.751C65.798 36.6939 65.6268 36.6939 65.5126 36.751L63.1729 38.0065C62.9446 38.1206 62.7164 38.0065 62.6022 37.8353C62.5452 37.7782 62.5452 37.6641 62.5452 37.5499L63.0017 34.9819C63.0017 34.8678 63.0017 34.6966 62.8876 34.5825L61.0044 32.7563C60.8332 32.5851 60.8332 32.3569 61.0044 32.1857C61.0614 32.1286 61.1756 32.0715 61.2326 32.0715L63.8577 31.6721C63.9718 31.6721 64.086 31.5579 64.2001 31.4438L65.3414 29.1041C65.3985 28.8758 65.6268 28.7617 65.855 28.8187C65.9121 28.8187 66.0262 28.9329 66.0833 29.047Z" fill="#93C840"/>
<path d="M36.5228 61.2325L36.2375 62.7163C36.2375 62.7733 36.2375 62.8875 36.2946 62.9445L37.3218 64.0288C37.4359 64.1429 37.4359 64.2571 37.3218 64.3712C37.2647 64.4283 37.2076 64.4283 37.1506 64.4283L35.6668 64.5995C35.6098 64.5995 35.4956 64.6565 35.4956 64.7136L34.8108 66.0261C34.7538 66.1403 34.5826 66.1973 34.4684 66.1403C34.4114 66.1403 34.4114 66.0832 34.3543 66.0261L33.7266 64.6565C33.6695 64.5995 33.6124 64.5424 33.5554 64.5424L32.0716 64.3141C31.9575 64.3141 31.8434 64.1429 31.9004 64.0288C31.9004 63.9717 31.9575 63.9147 31.9575 63.9147L33.0418 62.8875C33.0988 62.8304 33.0988 62.7733 33.0988 62.6592L32.8706 61.1755C32.8706 61.0613 32.9276 60.9472 33.0988 60.8901C33.1559 60.8901 33.213 60.8901 33.27 60.8901L34.5255 61.632C34.5826 61.6891 34.6967 61.6891 34.7538 61.632L36.0663 60.9472C36.1804 60.8901 36.3516 60.8901 36.4087 61.0043C36.5228 61.1184 36.5228 61.1755 36.5228 61.2325Z" fill="#93C840"/>
<path d="M212.687 23.6827L212.402 25.1664C212.402 25.2235 212.402 25.3376 212.459 25.3947L213.486 26.4789C213.601 26.5931 213.601 26.7072 213.486 26.8213C213.429 26.8784 213.372 26.8784 213.372 26.8784L211.888 27.0496C211.831 27.0496 211.717 27.1067 211.717 27.1637L211.032 28.4763C210.975 28.5904 210.804 28.6475 210.69 28.5904C210.633 28.5904 210.633 28.5333 210.576 28.4763L209.948 27.1067C209.891 27.0496 209.834 26.9925 209.777 26.9925L208.293 26.7072C208.179 26.7072 208.065 26.536 208.122 26.4219C208.122 26.3648 208.179 26.3077 208.179 26.3077L209.263 25.2805C209.321 25.2235 209.32 25.1664 209.32 25.0523L209.092 23.5685C209.092 23.4544 209.149 23.3403 209.32 23.2832C209.378 23.2832 209.435 23.2832 209.492 23.2832L210.804 24.0251C210.861 24.0821 210.975 24.0821 211.032 24.0251L212.402 23.3403C212.516 23.2832 212.687 23.3403 212.744 23.4544C212.687 23.5685 212.745 23.6256 212.687 23.6827Z" fill="#93C840"/>
<path d="M370.078 74.6432L369.792 76.1269C369.792 76.184 369.792 76.2981 369.849 76.3552L370.877 77.4394C370.991 77.5536 370.991 77.6677 370.877 77.7819C370.819 77.8389 370.762 77.8389 370.762 77.8389L369.279 78.0101C369.222 78.0101 369.107 78.0672 369.107 78.1242L368.423 79.4368C368.366 79.5509 368.251 79.608 368.08 79.5509C368.023 79.5509 367.966 79.4938 367.966 79.4368L367.338 78.0672C367.281 78.0101 367.224 77.9531 367.167 77.9531L365.683 77.7248C365.569 77.7248 365.455 77.5536 365.512 77.4394C365.512 77.3824 365.569 77.3253 365.569 77.3253L366.654 76.2981C366.711 76.241 366.768 76.184 366.711 76.0699L366.482 74.5861C366.482 74.472 366.539 74.3578 366.711 74.3008C366.768 74.3008 366.825 74.3008 366.882 74.3008L368.194 75.0426C368.251 75.0997 368.366 75.0997 368.423 75.0426L369.735 74.3579C369.849 74.3008 370.021 74.3578 370.078 74.472C370.078 74.529 370.078 74.5861 370.078 74.6432Z" fill="#93C840"/>
<path d="M364.884 39.9467L364.028 40.3462C363.971 40.3462 363.971 40.4032 363.914 40.4603L363.743 41.3734C363.743 41.4304 363.629 41.4875 363.572 41.4875C363.515 41.4875 363.515 41.4875 363.515 41.4304L362.887 40.7456C362.83 40.6886 362.83 40.6886 362.773 40.6886L361.86 40.8598C361.803 40.8598 361.689 40.8027 361.689 40.7456C361.689 40.6886 361.689 40.6886 361.689 40.6315L362.145 39.7755C362.145 39.7184 362.145 39.6614 362.145 39.6614L361.689 38.8054C361.632 38.7483 361.689 38.6342 361.746 38.5771C361.746 38.5771 361.803 38.5771 361.86 38.5771L362.773 38.7483C362.83 38.7483 362.887 38.7483 362.887 38.6912L363.572 38.0064C363.629 37.9494 363.743 37.9494 363.8 38.0064L363.857 38.0635L363.971 38.9766C363.971 39.0336 364.028 39.0907 364.028 39.0907L364.884 39.5472C364.941 39.6043 364.999 39.6614 364.941 39.7755C364.884 39.8896 364.884 39.9467 364.884 39.9467Z" fill="#93C840"/>
<path d="M82.9753 68.48L82.1193 68.8794C82.0622 68.8794 82.0622 68.9365 82.0622 68.9936L81.891 69.9066C81.891 69.9637 81.7769 70.0208 81.7198 70.0208C81.6628 70.0208 81.6628 70.0208 81.6628 69.9637L81.035 69.2789C80.978 69.2218 80.9209 69.2218 80.9209 69.2218L80.0078 69.393C79.9508 69.393 79.8366 69.336 79.8366 69.2789C79.8366 69.2218 79.8366 69.2218 79.8366 69.1648L80.2932 68.3088C80.2932 68.2517 80.2932 68.1946 80.2932 68.1946L79.8366 67.3386C79.7796 67.2816 79.8366 67.1674 79.8937 67.1104C79.9508 67.1104 79.9508 67.1104 80.0078 67.1104L80.9209 67.2816C80.978 67.2816 81.035 67.2816 81.0921 67.2816L81.7769 66.5968C81.834 66.5397 81.9481 66.5397 82.0052 66.5968L82.0622 66.6538L82.1764 67.5669C82.1764 67.624 82.2334 67.681 82.2334 67.681L83.0894 68.1376C83.0894 68.3088 83.0894 68.4229 82.9753 68.48C83.0324 68.48 83.0324 68.48 82.9753 68.48Z" fill="#93C840"/>
<path d="M331.215 50.0475L330.759 52.2731C330.759 52.3872 330.759 52.5013 330.873 52.6155L332.471 54.2133C332.585 54.3275 332.585 54.5557 332.471 54.7269C332.413 54.784 332.356 54.8411 332.242 54.8411L330.017 55.1264C329.903 55.1264 329.788 55.1835 329.731 55.2976L328.704 57.2949C328.59 57.4661 328.419 57.5232 328.248 57.4661C328.191 57.4091 328.134 57.352 328.076 57.2949L327.106 55.2405C327.049 55.1264 326.935 55.0693 326.821 55.0123L324.595 54.6128C324.424 54.5557 324.253 54.3845 324.31 54.2133C324.31 54.1563 324.367 54.0421 324.424 53.9851L326.079 52.4443C326.193 52.3872 326.193 52.216 326.193 52.1019L325.908 49.8763C325.908 49.7051 326.022 49.4768 326.193 49.4768C326.25 49.4768 326.364 49.4768 326.421 49.5339L328.419 50.6181C328.533 50.6752 328.647 50.6752 328.761 50.6181L330.759 49.648C330.93 49.5339 331.158 49.648 331.215 49.8192C331.215 49.8763 331.215 49.9333 331.215 50.0475Z" fill="#93C840"/>
<path d="M148.373 80.4069L140.498 79.4939C130.625 89.4805 114.532 89.5947 104.546 79.7221C94.5591 69.8496 94.445 53.7568 104.318 43.7701C114.19 33.7835 130.283 33.6693 140.27 43.5419C147.802 50.9605 149.914 62.3168 145.634 71.9611L148.373 80.4069Z" fill="white"/>
<path d="M148.373 80.4071L148.202 79.8364L147.631 78.2385C147.175 76.8119 146.433 74.7004 145.52 71.9612L145.634 72.0182C145.577 72.0753 145.577 72.0753 145.52 72.0182C145.52 71.9612 145.52 71.9612 145.52 71.9041C147.745 66.8252 148.259 61.1185 146.946 55.7542C146.604 54.3846 146.148 53.0721 145.577 51.8167C144.378 49.0204 142.666 46.4524 140.555 44.2839C130.911 34.2401 114.989 33.9548 104.945 43.5991C103.804 44.6833 102.777 45.8817 101.864 47.1943C99.467 50.5612 97.9833 54.4417 97.4126 58.4935C96.899 62.374 97.2985 66.3116 98.5539 70.0209C99.7523 73.502 101.693 76.6977 104.318 79.3228C108.883 84.0023 115.103 86.7415 121.666 86.9697H122.75C123.093 86.9697 123.435 86.9697 123.834 86.9127L125.889 86.7415C127.201 86.5132 128.457 86.2279 129.712 85.8855C133.707 84.6871 137.359 82.5185 140.327 79.5511H140.384L146.205 80.2929L147.745 80.4641L148.373 80.4071H147.86L146.376 80.2359L140.441 79.6081H140.498C137.53 82.6327 133.878 84.8582 129.826 86.1137C128.571 86.4561 127.258 86.7415 125.946 86.9697L123.834 87.1409C123.492 87.198 123.093 87.198 122.75 87.198H121.666C115.046 87.0268 108.712 84.2305 104.089 79.494C101.464 76.8119 99.467 73.6161 98.2686 70.078C96.9561 66.3116 96.5566 62.3169 97.0702 58.3793C97.5838 54.2135 99.1246 50.2759 101.578 46.8519C101.864 46.3953 102.149 45.9959 102.492 45.5964L103.462 44.4551L104.546 43.3708C104.888 42.9713 105.288 42.6289 105.687 42.3436L106.829 41.3735C107.228 41.0311 107.628 40.8028 108.084 40.5175C108.541 40.2321 108.883 39.9468 109.34 39.7185L110.709 38.9767C114.133 37.1505 117.957 36.1804 121.894 36.1233C132.28 35.8951 141.81 42.0583 145.862 51.6455C146.433 52.958 146.832 54.2705 147.232 55.6401C147.517 56.8956 147.745 58.2081 147.86 59.5207C148.202 63.7436 147.46 68.0236 145.691 71.9041H145.52C145.52 71.8471 145.577 71.8471 145.634 71.9041C145.634 71.9041 145.634 71.9041 145.691 71.9612L147.745 78.2956C147.974 78.9804 148.145 79.5511 148.259 79.8935C148.373 80.2359 148.373 80.4071 148.373 80.4071Z" fill="#263238"/>
<path d="M110.367 62.6593L113.505 59.2923L119.897 64.6566L131.767 52.4443L134.848 55.583L119.669 70.8769L110.367 62.6593Z" fill="#93C840"/>
<path d="M115.275 170.002C127.773 118.984 152.597 75.0998 193.627 40.7457C196.937 35.3244 204.014 33.5553 209.492 36.8652L307.133 96.0433C312.554 99.3532 314.323 106.429 311.014 111.908C295.32 164.295 271.866 209.72 232.661 241.164C229.351 246.585 222.275 248.354 216.797 245.044L119.155 185.866C113.677 182.556 111.965 175.48 115.275 170.002Z" fill="#F2F2F2"/>
<path opacity="0.2" d="M132.623 187.236C127.202 183.926 125.433 176.85 128.743 171.371C141.24 120.297 166.064 76.4695 207.095 42.1154C208.122 40.4034 209.606 38.9767 211.375 38.0636L209.435 36.9223C203.956 33.6124 196.88 35.3815 193.57 40.8028C152.482 75.157 127.715 119.041 115.218 170.059C111.908 175.537 113.677 182.613 119.098 185.923L216.739 245.102C220.277 247.213 224.672 247.327 228.267 245.273L132.623 187.236Z" fill="black"/>
<path d="M247.099 158.703L181.586 119.213C179.418 117.9 178.733 115.104 180.045 112.935C181.358 110.767 184.154 110.082 186.323 111.394L251.835 150.885C254.004 152.197 254.688 155.05 253.376 157.219C252.063 159.273 249.267 160.015 247.099 158.703Z" fill="white"/>
<path d="M208.978 106.315L194.54 97.6412C192.372 96.3287 191.63 93.5324 192.943 91.3639C194.255 89.1954 197.051 88.4535 199.22 89.766L213.658 98.4402C215.826 99.7527 216.511 102.606 215.199 104.718C213.943 106.943 211.147 107.628 208.978 106.315Z" fill="white"/>
<path d="M236.713 175.994L171.2 136.504C169.032 135.191 168.347 132.395 169.66 130.226C170.972 128.058 173.768 127.373 175.937 128.685L241.449 168.176C243.618 169.488 244.303 172.341 242.99 174.51C241.678 176.564 238.824 177.249 236.713 175.994Z" fill="white"/>
<path d="M255.43 84.2305C265.989 84.2305 274.548 75.6714 274.548 65.1132C274.548 54.555 265.989 45.9958 255.43 45.9958C244.872 45.9958 236.313 54.555 236.313 65.1132C236.313 75.6714 244.872 84.2305 255.43 84.2305Z" fill="#3F3D56"/>
<path d="M222.446 270.211C245.044 270.211 263.363 251.891 263.363 229.294C263.363 206.696 245.044 188.377 222.446 188.377C199.848 188.377 181.529 206.696 181.529 229.294C181.529 251.891 199.848 270.211 222.446 270.211Z" fill="white"/>
<path d="M222.446 270.782C199.562 270.782 180.958 252.235 180.958 229.294C180.958 206.353 199.505 187.807 222.446 187.807C245.33 187.807 263.933 206.353 263.933 229.294C263.876 252.178 245.33 270.725 222.446 270.782ZM222.446 188.948C200.19 188.948 182.1 206.981 182.1 229.294C182.1 251.607 200.133 269.64 222.446 269.64C244.759 269.64 262.792 251.607 262.792 229.294C262.735 207.038 244.702 189.005 222.446 188.948Z" fill="#3F3D56"/>
<path d="M216.853 250.58C215.427 250.58 214.057 249.895 213.201 248.754L202.016 233.859C200.532 231.862 200.932 229.009 202.929 227.468C204.927 225.984 207.78 226.383 209.321 228.381L216.625 238.139L235.4 210.005C236.77 207.894 239.623 207.323 241.735 208.75C243.846 210.119 244.417 212.973 242.99 215.084L220.677 248.582C219.878 249.838 218.508 250.58 217.025 250.58C216.911 250.58 216.911 250.58 216.853 250.58Z" fill="#93C840"/>
</svg>
