<svg width="21" height="24" viewBox="0 0 21 24" fill="none" xmlns="http://www.w3.org/2000/svg">
<path d="M18.8618 3.87273L17.3127 5.42182C15.6928 4.12783 13.7051 3.37929 11.634 3.28328C9.56293 3.18727 7.51453 3.7487 5.78182 4.88727L7.37455 6.48C8.82839 5.63846 10.5195 5.30061 12.1851 5.51894C13.8506 5.73728 15.3975 6.49957 16.5853 7.6874C17.7732 8.87522 18.5354 10.4221 18.7538 12.0877C18.9721 13.7533 18.6343 15.4443 17.7927 16.8982L19.3745 18.48C20.5183 16.7538 21.084 14.7087 20.9899 12.64C20.8958 10.5714 20.1467 8.58615 18.8509 6.97091L20.4 5.42182L18.8618 3.87273ZM14.4545 0H7.90909V2.18182H14.4545V0ZM10.0909 9.20727L12.2727 11.3891V7.63636H10.0909V9.20727ZM1.38545 3.27273L0 4.65818L3 7.66909C1.74821 9.55778 1.1882 11.8213 1.41496 14.0758C1.64172 16.3303 2.64129 18.4369 4.24414 20.0385C5.84698 21.6401 7.95445 22.6379 10.2091 22.8629C12.4638 23.0879 14.7269 22.526 16.6145 21.2727L19.3418 24L20.7273 22.6145L12.3164 14.2036L1.38545 3.27273ZM11.1818 20.7273C9.83927 20.7272 8.52048 20.3731 7.3584 19.7008C6.19632 19.0285 5.23202 18.0617 4.56272 16.8979C3.89342 15.7341 3.54277 14.4144 3.54612 13.0718C3.54947 11.7293 3.90671 10.4114 4.58182 9.25091L15.0109 19.68C13.852 20.3671 12.5291 20.7289 11.1818 20.7273Z" fill="#0E404A"/>
</svg>
