<svg width="29" height="29" viewBox="0 0 29 29" fill="none" xmlns="http://www.w3.org/2000/svg">
<circle cx="14.5" cy="14.5" r="14.5" fill="#0E404A"/>
<path d="M12 13.3636H10.3333V15H12V13.3636ZM15.3333 13.3636H13.6667V15H15.3333V13.3636ZM18.6667 13.3636H17V15H18.6667V13.3636ZM20.3333 7.63636H19.5V6H17.8333V7.63636H11.1667V6H9.5V7.63636H8.66667C8.44822 7.63647 8.23194 7.67893 8.03025 7.7613C7.82856 7.84367 7.64542 7.96434 7.49134 8.11638C7.33726 8.26841 7.21528 8.44883 7.13239 8.64726C7.04951 8.8457 7.00735 9.05825 7.00833 9.27273L7 20.7273C7 21.1613 7.17559 21.5775 7.48816 21.8844C7.80072 22.1912 8.22464 22.3636 8.66667 22.3636H20.3333C20.775 22.3623 21.1981 22.1895 21.5104 21.8829C21.8227 21.5763 21.9987 21.1609 22 20.7273V9.27273C21.9987 8.83913 21.8227 8.42367 21.5104 8.11707C21.1981 7.81048 20.775 7.63766 20.3333 7.63636ZM20.3333 20.7273H8.66667V11.7273H20.3333V20.7273Z" fill="white"/>
</svg>
