<svg width="24" height="24" viewBox="0 0 24 24" fill="none" xmlns="http://www.w3.org/2000/svg">
<path d="M24 9.49406H14.9593L18.6129 5.73377C16.8745 3.98591 14.5182 2.99215 12.0531 2.9672C9.58799 2.94225 7.21205 3.88811 5.43857 5.60043C4.57378 6.45329 3.88709 7.4695 3.4184 8.59001C2.9497 9.71053 2.70834 10.913 2.70834 12.1276C2.70834 13.3422 2.9497 14.5447 3.4184 15.6652C3.88709 16.7857 4.57378 17.8019 5.43857 18.6548C7.19139 20.3908 9.5587 21.3648 12.0257 21.3648C14.4928 21.3648 16.8601 20.3908 18.6129 18.6548C19.4979 17.8192 20.1974 16.8069 20.6661 15.6836C21.1347 14.5603 21.3619 13.3511 21.3331 12.1343H24C23.9259 15.2739 22.6685 18.2696 20.4797 20.5216C18.2203 22.7515 15.1736 24.0018 11.9991 24.0018C8.82458 24.0018 5.77781 22.7515 3.51842 20.5216C2.40637 19.4269 1.52273 18.1223 0.918752 16.6835C0.314779 15.2447 0.00249572 13.7003 1.48982e-05 12.1398C-0.00246593 10.5794 0.304905 9.034 0.9043 7.59327C1.5037 6.15254 2.38318 4.84516 3.49176 3.74695C5.73581 1.52378 8.76689 0.276552 11.9257 0.276552C15.0846 0.276552 18.1157 1.52378 20.3597 3.74695L24 0V9.49406ZM12.6658 6.66718V12.3343L17.3328 15.1078L16.3727 16.7213L10.6656 13.3344V6.66718H12.6658Z" fill="white"/>
</svg>
