<svg width="29" height="29" viewBox="0 0 29 29" fill="none" xmlns="http://www.w3.org/2000/svg">
<circle cx="14.5" cy="14.5" r="14.5" fill="#0E404A"/>
<path d="M17.641 15.3419L18.2564 15.9573C18.735 15.6838 19.282 15.4787 19.8974 15.4787C21.6752 15.4787 23.1111 16.9146 23.1111 18.6924C23.1111 19.3078 22.9743 19.8548 22.6325 20.3334L23.2478 20.9488C23.6581 20.3334 23.9316 19.5813 23.9316 18.7607C23.9316 16.5727 22.1538 14.7266 19.8974 14.7266C19.0769 14.7266 18.2564 14.9317 17.641 15.3419Z" fill="white"/>
<path d="M21.5925 17.1961L20.5289 18.2598L21.1091 18.84L22.1727 17.7763L21.5925 17.1961Z" fill="white"/>
<path d="M15.5897 15.6154L16.4786 16.5043C16.0684 17.1197 15.7949 17.8718 15.7949 18.6923C15.7949 20.8803 17.5726 22.7265 19.8291 22.7265C20.6496 22.7265 21.4017 22.453 22.0171 22.0427L22.906 22.9316L23.453 22.3846L16.2051 15L15.5897 15.6154ZM17.094 17.1197L19.3504 19.3761L19.282 19.4444L18.1197 18.2821L17.5726 18.8291L19.282 20.5385L19.8974 19.9231L21.4701 21.4957C20.9914 21.7692 20.4444 21.9744 19.8291 21.9744C18.0513 21.9744 16.6154 20.5385 16.6154 18.7607C16.6838 18.1453 16.8205 17.5983 17.094 17.1197Z" fill="white"/>
<path d="M14.8376 15H11.2137V16.2308H14.8376V15Z" fill="white"/>
<path d="M16.2051 21.7692H9.23077V8.23077H15.8632V11.9231H19.6923V13.7692C19.7607 13.7692 19.8291 13.7692 19.8974 13.7692C20.2393 13.7692 20.5812 13.8376 20.9231 13.906V11.3761L16.547 7H9.23077C8.88889 7 8.61538 7.13675 8.41026 7.34188C8.13675 7.61538 8 7.88889 8 8.23077V21.8376C8 22.1795 8.13675 22.453 8.34188 22.6581C8.61538 22.9316 8.88889 23 9.16239 23H17.7094C17.1624 22.7265 16.6838 22.3846 16.4103 22.0427C16.3419 21.9744 16.2735 21.906 16.2051 21.7692Z" fill="white"/>
<path d="M14.8376 18.418H11.2137V19.6487H14.8376V18.418Z" fill="white"/>
</svg>
